<svg width="16" height="19" viewBox="0 0 16 19" fill="none" xmlns="http://www.w3.org/2000/svg">
<path d="M13.2603 18.125C12.2395 19.1146 11.1249 18.9583 10.052 18.4896C8.91655 18.0104 7.87489 17.9896 6.67697 18.4896C5.17697 19.1354 4.3853 18.9479 3.48947 18.125C-1.59386 12.8854 -0.843864 4.90625 4.92697 4.61458C6.33322 4.6875 7.31239 5.38542 8.1353 5.44792C9.36447 5.19792 10.5416 4.47917 11.8541 4.57292C13.427 4.69792 14.6145 5.32292 15.3957 6.44792C12.1457 8.39583 12.9166 12.6771 15.8957 13.875C15.302 15.4375 14.5311 16.9896 13.2499 18.1354L13.2603 18.125ZM8.03114 4.55208C7.87489 2.22917 9.7603 0.3125 11.927 0.125C12.2291 2.8125 9.48947 4.8125 8.03114 4.55208Z" fill="white"/>
</svg>
