<svg width="165" height="52" viewBox="0 0 165 52" fill="none" xmlns="http://www.w3.org/2000/svg">
<g clip-path="url(#clip0_5_1773)">
<mask id="mask0_5_1773" style="mask-type:luminance" maskUnits="userSpaceOnUse" x="0" y="0" width="165" height="52">
<path d="M164.897 0.301086H0.335449V51.4149H164.897V0.301086Z" fill="white"/>
</mask>
<g mask="url(#mask0_5_1773)">
<path d="M85.1067 17.6214H77.5986L76.1707 20.8503H71.6177L79.3546 5.1796H83.3228L91.1025 20.8503H86.5487L85.1067 17.6214ZM78.7548 15.006H83.9512L81.3387 9.1403L78.7548 15.006ZM97.4546 6.34201V9.2049H100.095V11.4866H97.4546V17.2985C97.4546 17.7291 97.5642 18.0376 97.7832 18.2241C98.002 18.4107 98.4202 18.5039 99.039 18.5039C99.4959 18.5039 99.9003 18.4789 100.252 18.4286V20.7856C99.4435 20.9722 98.6106 21.0655 97.7541 21.0655C94.8611 21.0655 93.3861 19.9642 93.3292 17.7613V11.4866H91.0739V9.2049H93.3292V6.34201H97.4546ZM101.323 14.92C101.323 13.7647 101.618 12.7351 102.208 11.831C102.798 10.927 103.645 10.2274 104.749 9.73226C105.862 9.23718 107.152 8.98967 108.618 8.98967C110.702 8.98967 112.401 9.47038 113.713 10.4319C115.036 11.3933 115.774 12.6992 115.926 14.3495L115.954 15.146C115.954 16.9326 115.293 18.3676 113.97 19.4511C112.647 20.5275 110.873 21.0655 108.646 21.0655C106.419 21.0655 104.639 20.5275 103.307 19.4511C101.984 18.3748 101.323 16.9111 101.323 15.0599V14.92ZM105.448 15.146C105.448 16.2509 105.724 17.0976 106.276 17.686C106.828 18.2672 107.618 18.5578 108.646 18.5578C109.645 18.5578 110.425 18.2707 110.987 17.6968C111.548 17.1156 111.829 16.19 111.829 14.92C111.829 13.8365 111.548 12.997 110.987 12.4014C110.425 11.8059 109.635 11.5081 108.618 11.5081C107.609 11.5081 106.828 11.8059 106.276 12.4014C105.724 12.9898 105.448 13.9047 105.448 15.146ZM122.364 9.2049L122.493 10.5072C123.586 9.4955 125.067 8.98967 126.931 8.98967C128.92 8.98967 130.286 9.58159 131.028 10.7655C132.113 9.58159 133.66 8.98967 135.668 8.98967C137.343 8.98967 138.589 9.35917 139.408 10.0982C140.226 10.8301 140.636 11.9351 140.636 13.4131V20.8503H136.496V13.4239C136.496 12.7638 136.324 12.283 135.982 11.9817C135.639 11.6731 135.035 11.5189 134.169 11.5189C132.932 11.5189 132.076 11.9638 131.6 12.8535L131.614 20.8503H127.488V13.4347C127.488 12.7602 127.312 12.2723 126.96 11.9709C126.608 11.6696 126.009 11.5189 125.162 11.5189C123.991 11.5189 123.144 11.8848 122.621 12.6167V20.8503H118.495V9.2049H122.364ZM148.172 20.8503H144.033V9.2049H148.172V20.8503ZM143.79 6.1913C143.79 5.72493 143.994 5.34107 144.404 5.03969C144.823 4.73831 145.389 4.58765 146.103 4.58765C146.807 4.58765 147.368 4.73831 147.787 5.03969C148.206 5.34107 148.415 5.72493 148.415 6.1913C148.415 6.66487 148.201 7.05234 147.773 7.35367C147.354 7.65503 146.797 7.8057 146.103 7.8057C145.408 7.8057 144.846 7.65503 144.418 7.35367C143.999 7.05234 143.79 6.66487 143.79 6.1913ZM158.008 18.5578C158.769 18.5578 159.387 18.3999 159.863 18.0842C160.339 17.7685 160.586 17.3487 160.605 16.8249H164.474C164.465 17.6143 164.179 18.3389 163.618 18.999C163.056 19.652 162.285 20.1614 161.305 20.5275C160.334 20.886 159.259 21.0655 158.079 21.0655C155.871 21.0655 154.129 20.5381 152.855 19.4834C151.579 18.4215 150.941 16.9577 150.941 15.0921V14.8876C150.941 13.0939 151.575 11.6624 152.84 10.5933C154.106 9.5242 155.843 8.98967 158.051 8.98967C159.982 8.98967 161.529 9.40582 162.69 10.2381C163.861 11.0633 164.455 12.1647 164.474 13.5423H160.605C160.586 12.9396 160.339 12.4517 159.863 12.0786C159.387 11.6983 158.759 11.5081 157.979 11.5081C157.018 11.5081 156.29 11.7736 155.795 12.3046C155.31 12.8284 155.067 13.6822 155.067 14.8661V15.189C155.067 16.3873 155.31 17.2483 155.795 17.7721C156.28 18.2959 157.018 18.5578 158.008 18.5578ZM95.4275 41.899L98.2253 30.7487H102.493L97.8827 46.4194H93.5715L90.1888 35.9363L86.8055 46.4194H82.4947L77.8839 30.7487H82.1517L84.9644 41.8773L88.3901 30.7487H92.0162L95.4275 41.899ZM113.014 46.4194C112.823 46.1394 112.685 45.7915 112.6 45.3755C111.601 46.2149 110.302 46.6345 108.703 46.6345C107.19 46.6345 105.934 46.3044 104.935 45.6442C103.945 44.9841 103.45 44.1519 103.45 43.1473C103.45 41.9133 104.054 40.9661 105.263 40.306C106.481 39.6458 108.236 39.3122 110.53 39.3049H112.429V38.6377C112.429 38.0996 112.243 37.6691 111.872 37.3461C111.51 37.0235 110.935 36.8617 110.144 36.8617C109.45 36.8617 108.903 36.9875 108.503 37.2386C108.113 37.4898 107.918 37.8342 107.918 38.2718H103.792C103.792 37.5973 104.069 36.9732 104.62 36.3991C105.172 35.8253 105.953 35.3766 106.962 35.0536C107.97 34.7236 109.103 34.5588 110.359 34.5588C112.262 34.5588 113.771 34.9209 114.884 35.6456C116.007 36.3633 116.568 37.3748 116.568 38.6807V43.7286C116.578 44.8331 116.782 45.6694 117.183 46.236V46.4194H113.014ZM109.602 44.2557C110.211 44.2557 110.773 44.1554 111.287 43.9547C111.8 43.7465 112.181 43.4703 112.429 43.1257V41.1238H110.887C108.822 41.1238 107.723 41.6621 107.59 42.7384L107.575 42.9212C107.575 43.3089 107.756 43.628 108.118 43.8792C108.479 44.1303 108.974 44.2557 109.602 44.2557ZM124.091 46.4194H119.951V29.8876H124.091V46.4194ZM131.856 46.4194H127.716V29.8876H131.856V46.4194ZM142.377 46.6345C140.112 46.6345 138.266 46.1105 136.838 45.0631C135.42 44.0153 134.711 42.6201 134.711 40.8763V40.5751C134.711 39.4054 135.011 38.3615 135.611 37.443C136.21 36.5177 137.057 35.8072 138.152 35.312C139.256 34.8097 140.512 34.5588 141.92 34.5588C144.033 34.5588 145.693 35.0611 146.902 36.0655C148.12 37.0699 148.729 38.4944 148.729 40.3384V41.6082H138.894C139.027 42.369 139.426 42.9786 140.093 43.4379C140.769 43.8971 141.62 44.1267 142.648 44.1267C144.237 44.1267 145.48 43.6927 146.374 42.8245L148.401 44.5356C147.782 45.1958 146.945 45.7124 145.889 46.0854C144.832 46.4516 143.662 46.6345 142.377 46.6345ZM141.906 37.0772C141.088 37.0772 140.421 37.2851 139.907 37.7013C139.403 38.1175 139.079 38.713 138.937 39.488H144.675V39.2404C144.656 38.5516 144.408 38.0206 143.933 37.6477C143.457 37.2673 142.781 37.0772 141.906 37.0772ZM156.024 31.9111V34.7739H158.664V37.0557H156.024V42.8678C156.024 43.2981 156.133 43.6064 156.352 43.7929C156.57 43.9795 156.99 44.0729 157.608 44.0729C158.064 44.0729 158.469 44.0477 158.821 43.9974V46.3547C158.013 46.5411 157.18 46.6345 156.323 46.6345C153.43 46.6345 151.955 45.5332 151.898 43.3305V37.0557H149.642V34.7739H151.898V31.9111H156.024Z" fill="white"/>
<path fill-rule="evenodd" clip-rule="evenodd" d="M0.335449 51.4149L21.2203 8.27341C23.8704 3.2364 28.8112 0.385207 35.3795 0.302919C35.4284 0.302919 35.4775 0.301239 35.5261 0.301543C35.5749 0.301239 35.6238 0.301086 35.6729 0.301086C42.2412 0.383375 47.1819 3.2364 49.8321 8.27341L70.7165 51.4149L57.7844 48.0239L39.9437 11.1705C38.8578 9.13213 37.6044 8.39837 35.5261 8.36597C33.448 8.39837 32.1946 9.13213 31.1087 11.1705L13.268 48.0239L0.335449 51.4149ZM44.6134 34.9875C44.6134 38.756 40.5999 41.8106 35.6486 41.8106C30.6976 41.8106 26.6841 38.756 26.6841 34.9875C26.6841 31.2193 30.6976 28.1644 35.6486 28.1644C40.5999 28.1644 44.6134 31.2193 44.6134 34.9875Z" fill="#888889"/>
<path fill-rule="evenodd" clip-rule="evenodd" d="M0.335449 51.4149L21.2203 8.27341C23.8704 3.2364 28.8112 0.385207 35.3795 0.302919C35.4284 0.302919 35.4775 0.301239 35.5261 0.301543C35.5749 0.301239 35.6238 0.301086 35.6729 0.301086C42.2412 0.383375 47.1819 3.2364 49.8321 8.27341L70.7165 51.4149L57.7844 48.0239L39.9437 11.1705C38.8578 9.13213 37.6044 8.39837 35.5261 8.36597C33.448 8.39837 32.1946 9.13213 31.1087 11.1705L13.268 48.0239L0.335449 51.4149ZM44.6134 34.9875C44.6134 38.756 40.5999 41.8106 35.6486 41.8106C30.6976 41.8106 26.6841 38.756 26.6841 34.9875C26.6841 31.2193 30.6976 28.1644 35.6486 28.1644C40.5999 28.1644 44.6134 31.2193 44.6134 34.9875Z" fill="url(#paint0_linear_5_1773)"/>
</g>
</g>
<defs>
<linearGradient id="paint0_linear_5_1773" x1="0.335449" y1="0.301086" x2="0.335449" y2="51.4149" gradientUnits="userSpaceOnUse">
<stop stop-color="#42C1FD"/>
<stop offset="1" stop-color="#1F8EFA"/>
</linearGradient>
<clipPath id="clip0_5_1773">
<rect width="164.562" height="51.1139" fill="white" transform="translate(0.335938 0.301086)"/>
</clipPath>
</defs>
</svg>
