<svg width="158" height="50" viewBox="0 0 158 50" fill="none" xmlns="http://www.w3.org/2000/svg">
<g clip-path="url(#clip0_5_1707)">
<mask id="mask0_5_1707" style="mask-type:luminance" maskUnits="userSpaceOnUse" x="0" y="0" width="158" height="50">
<path d="M157.979 0.345642H0V49.4149H157.979V0.345642Z" fill="white"/>
</mask>
<g mask="url(#mask0_5_1707)">
<path d="M9.66489 20.9641L15.8015 11.4377L21.9406 20.9718L25.5093 15.4258L15.8015 0.345703L6.09375 15.4219L9.66489 20.9641Z" fill="#F3BA2F"/>
<path d="M0 24.8813L3.56985 19.3372L7.13969 24.8813L3.56985 30.4252L0 24.8813Z" fill="#F3BA2F"/>
<path d="M9.66208 28.7961L15.7987 38.3263L21.9378 28.7924L25.5089 34.3306L25.5064 34.3345L15.7987 49.4145L6.09093 34.3423L6.08594 34.3345L9.66208 28.7961Z" fill="#F3BA2F"/>
<path d="M24.457 24.8826L28.0269 19.3387L31.5967 24.8826L28.0269 30.4267L24.457 24.8826Z" fill="#F3BA2F"/>
<path d="M19.4234 24.879L15.8024 19.2515L13.1246 23.4101L12.8151 23.8866L12.1813 24.871L12.1763 24.879L12.1813 24.8905L15.8024 30.5102L19.4234 24.8827L19.426 24.879H19.4234Z" fill="#F3BA2F"/>
<path d="M37.165 12.236H44.9313C46.8578 12.236 48.3153 13.0111 49.3035 14.5614C49.6758 15.1341 49.9694 15.8182 50.1663 16.5724C50.3631 17.3265 50.4593 18.135 50.4489 18.9486V19.0223C50.4556 19.6888 50.3959 20.353 50.2718 20.9911C50.1612 21.5405 50.0007 22.0625 49.7951 22.5413C49.6035 22.9929 49.3716 23.4 49.1064 23.7505C48.8472 24.097 48.5634 24.3959 48.2603 24.6418C49.1341 25.1146 49.9199 25.9131 50.5487 26.9673C51.1044 27.9491 51.3823 29.3057 51.3823 31.0367V31.1103C51.3981 32.1915 51.2466 33.2627 50.9406 34.2341C50.644 35.1291 50.2093 35.8961 49.6753 36.4664C49.0716 37.095 48.3994 37.548 47.6914 37.8035C46.8501 38.1132 45.9878 38.2629 45.1234 38.2493H37.165V12.236ZM44.1526 22.7545C44.8245 22.8049 45.4932 22.5803 46.0917 22.1034C46.3251 21.8917 46.5156 21.5827 46.6418 21.2115C46.7679 20.8401 46.8246 20.4215 46.8055 20.0027V19.9291C46.8178 19.5433 46.7673 19.1589 46.6588 18.8114C46.5501 18.4639 46.3868 18.1646 46.184 17.941C45.7698 17.4836 45.1717 17.255 44.3897 17.255H40.7562V22.7545H44.1526ZM45.1334 33.238C45.8028 33.2963 46.4692 33.0583 47.055 32.552C47.2832 32.3244 47.4679 32.0058 47.59 31.6295C47.7119 31.2532 47.7668 30.833 47.7487 30.4127V30.3391C47.7578 29.9396 47.7036 29.5427 47.5908 29.1832C47.4782 28.8238 47.3104 28.5126 47.1024 28.2773C46.6731 27.7605 45.9794 27.5022 45.0212 27.5022H40.7562V33.238H45.1334Z" fill="#F3BA2F"/>
<path d="M56.0107 12.2359H59.6967V38.2568H56.0107V12.2359Z" fill="#F3BA2F"/>
<path d="M65.271 12.2359H68.6699L76.5261 28.2499V12.2359H80.1645V38.2568H77.0276L68.9146 21.7158V38.2568H65.271V12.2359Z" fill="#F3BA2F"/>
<path d="M91.3263 12.0497H94.7203L101.9 38.2566H98.0518L96.5196 32.42H89.4347L87.9024 38.2566H84.144L91.3263 12.0497ZM95.2044 27.3662L92.9734 18.925L90.7524 27.3662H95.2044Z" fill="#F3BA2F"/>
<path d="M105.885 12.2359H109.284L117.135 28.2499V12.2359H120.774V38.2568H117.637L109.524 21.7158V38.2568H105.885V12.2359Z" fill="#F3BA2F"/>
<path d="M134.04 38.7143C132.865 38.7299 131.7 38.3767 130.616 37.6757C129.595 37.021 128.669 36.0555 127.892 34.8359C127.114 33.6166 126.502 32.1681 126.092 30.5756C125.657 28.9099 125.438 27.1285 125.446 25.3318V25.2582C125.426 21.7167 126.304 18.3053 127.888 15.759C128.669 14.5152 129.602 13.5292 130.634 12.86C131.755 12.1383 132.96 11.7783 134.175 11.802C134.893 11.7937 135.61 11.8936 136.316 12.1004C136.919 12.2778 137.511 12.5519 138.078 12.9182C138.593 13.2548 139.082 13.6785 139.538 14.1816C139.982 14.6723 140.4 15.2194 140.785 15.8172L138.442 20.0183C137.843 19.1604 137.172 18.4341 136.446 17.8596C135.732 17.3301 134.95 17.0647 134.16 17.0845C133.503 17.0736 132.85 17.2801 132.248 17.6904C131.645 18.1007 131.107 18.7053 130.666 19.4642C130.229 20.221 129.887 21.0977 129.657 22.0492C129.418 23.0548 129.297 24.1198 129.301 25.1923V25.2659C129.298 26.3369 129.419 27.4 129.657 28.4052C129.885 29.3602 130.223 30.2417 130.657 31.0057C131.093 31.774 131.631 32.3874 132.234 32.8046C132.836 33.2219 133.489 33.4331 134.15 33.424C134.99 33.4652 135.824 33.1844 136.578 32.6063C137.295 31.999 137.959 31.2484 138.552 30.374L140.898 34.0559C140.484 34.754 140.036 35.4019 139.557 35.9936C139.088 36.5701 138.578 37.0629 138.037 37.4625C137.462 37.8835 136.855 38.1945 136.231 38.3887C135.51 38.6133 134.776 38.7224 134.04 38.7143Z" fill="#F3BA2F"/>
<path d="M145.249 12.2359H157.859V17.3285H148.875V22.6071H156.786V27.6996H148.887V33.1642H157.984V38.2568H145.257L145.249 12.2359Z" fill="#F3BA2F"/>
</g>
</g>
<defs>
<clipPath id="clip0_5_1707">
<rect width="157.979" height="49.0693" fill="white" transform="translate(0 0.345642)"/>
</clipPath>
</defs>
</svg>
