<svg width="191" height="54" viewBox="0 0 191 54" fill="none" xmlns="http://www.w3.org/2000/svg">
<g clip-path="url(#clip0_5_1791)">
<path fill-rule="evenodd" clip-rule="evenodd" d="M70.3892 45.3253C63.0686 50.2906 52.7922 53.379 41.4122 53.379C19.1841 53.379 1.16455 41.5948 1.16455 27.0584C1.16455 12.5219 19.1841 0.737793 41.4122 0.737793C52.2927 0.737793 62.1644 3.56116 69.4084 8.14868L57.5581 15.8983C53.3487 13.2928 47.6658 11.695 41.4122 11.695C28.4374 11.695 17.9192 18.5735 17.9192 27.0586C17.9192 35.5437 28.4374 42.4221 41.4122 42.4221C48.0042 42.4221 53.9617 40.6467 58.2284 37.7873L70.187 45.1609L70.3892 45.3253Z" fill="#00B8FA"/>
<path fill-rule="evenodd" clip-rule="evenodd" d="M41.5957 39.3261C52.0563 39.3261 60.5361 33.7803 60.5361 26.9398C60.5361 20.0991 52.0563 14.5536 41.5957 14.5536C31.1354 14.5536 22.6558 20.0991 22.6558 26.9398C22.6558 33.7803 31.1354 39.3261 41.5957 39.3261ZM27.3909 21.8186H31.7616L35.5862 29.7982L39.7748 21.9377H43.2349L47.4238 29.7982L51.2482 21.9377H55.4367L49.245 33.8475H45.6026L41.4137 26.2253L37.2252 33.8475H33.947L27.3909 21.8186Z" fill="#00B8FA"/>
<path d="M107.947 16.793C107.695 18.5398 106.709 19.9042 104.989 20.8863C103.27 21.861 100.983 22.3483 98.1283 22.3483C96.1335 22.3483 94.3739 22.0409 92.8495 21.4263C91.3362 20.8039 90.167 19.9229 89.3411 18.7834C88.5159 17.6439 88.0861 16.3208 88.0515 14.8139V13.2845C88.0515 11.7401 88.4702 10.3794 89.3072 9.20243C90.1436 8.02539 91.3418 7.11829 92.9011 6.48104C94.4713 5.8438 96.2828 5.5252 98.3348 5.5252C101.098 5.5252 103.321 6.01624 105.007 6.99832C106.692 7.98043 107.672 9.36736 107.947 11.1591H103.614C103.407 9.98211 102.88 9.13495 102.032 8.61767C101.195 8.09288 99.9628 7.83048 98.3348 7.83048C96.4433 7.83048 94.9873 8.28405 93.9671 9.19117C92.9583 10.0908 92.4423 11.414 92.4196 13.1608V14.6114C92.4196 16.3807 92.9011 17.7301 93.8638 18.6597C94.8383 19.5893 96.2598 20.0542 98.1283 20.0542C99.8365 20.0542 101.12 19.803 101.98 19.3008C102.84 18.7984 103.384 17.9626 103.614 16.793H107.947ZM122.564 22.1234C122.38 21.8909 122.22 21.5123 122.082 20.9875C120.752 21.8948 119.124 22.3483 117.198 22.3483C115.33 22.3483 113.805 21.9996 112.624 21.3026C111.444 20.6051 110.853 19.7431 110.853 18.716C110.853 17.419 111.587 16.4257 113.054 15.736C114.533 15.0388 116.642 14.6902 119.382 14.6902H121.945V13.8917C121.945 13.262 121.675 12.7597 121.136 12.3849C120.597 12.0025 119.778 11.8113 118.677 11.8113C117.726 11.8113 116.946 11.9688 116.339 12.2836C115.731 12.591 115.427 12.9846 115.427 13.4644H111.249C111.249 12.7972 111.587 12.1749 112.263 11.5977C112.939 11.0129 113.857 10.5556 115.014 10.2258C116.184 9.8959 117.485 9.73097 118.918 9.73097C121.096 9.73097 122.833 10.0908 124.128 10.8105C125.424 11.5227 126.088 12.5273 126.123 13.8243V19.312C126.123 20.4066 126.358 21.2799 126.828 21.9322V22.1234H122.564ZM117.972 20.1554C118.798 20.1554 119.571 20.0243 120.294 19.7619C121.027 19.4993 121.578 19.1472 121.945 18.7048V16.4107H119.692C118.144 16.4107 116.981 16.5869 116.201 16.9392C115.422 17.2915 115.032 17.7902 115.032 18.4348C115.032 18.9596 115.295 19.3794 115.823 19.6943C116.362 20.0017 117.078 20.1554 117.972 20.1554ZM136.544 16.9055L134.686 18.1537V22.1234H130.508V4.85046H134.686V14.8139L135.993 13.7455L141.135 9.95587H146.156L139.243 15.0275L146.895 22.1234H142.063L136.544 16.9055ZM156.748 22.3483C154.101 22.3483 151.951 21.8047 150.3 20.7177C148.661 19.6231 147.841 18.1687 147.841 16.3545V16.0171C147.841 14.8026 148.197 13.7193 148.907 12.7672C149.63 11.8076 150.639 11.0617 151.934 10.5294C153.229 9.99709 154.673 9.73097 156.267 9.73097C158.801 9.73097 160.755 10.2595 162.131 11.3165C163.518 12.3736 164.211 13.8693 164.211 15.8035V16.9055H152.054C152.18 17.9101 152.69 18.7048 153.584 19.2895C154.49 19.8743 155.625 20.1666 156.989 20.1666C158.904 20.1666 160.463 19.6606 161.666 18.6485L163.919 20.0542C163.174 20.7813 162.177 21.3473 160.927 21.7522C159.689 22.1497 158.296 22.3483 156.748 22.3483ZM156.25 11.9238C155.103 11.9238 154.175 12.1862 153.464 12.711C152.765 13.2358 152.318 13.9667 152.123 14.9038H160.084V14.7014C159.993 13.7868 159.62 13.0971 158.967 12.6323C158.313 12.16 157.408 11.9238 156.25 11.9238ZM108.48 44.3956L112.332 32.0707H116.648L110.87 48.4439H106.709L101.946 36.4901L97.0794 48.4439H92.9011L87.123 32.0707H91.4392L95.3254 44.3732L100.106 32.0707H103.751L108.48 44.3956ZM129.958 48.4439C129.774 48.2115 129.614 47.8329 129.476 47.3083C128.146 48.2154 126.518 48.6689 124.593 48.6689C122.724 48.6689 121.199 48.3202 120.018 47.6231C118.838 46.9256 118.247 46.0637 118.247 45.0366C118.247 43.7396 118.981 42.7463 120.448 42.0565C121.927 41.3594 124.037 41.0106 126.776 41.0106H129.339V40.2123C129.339 39.5826 129.069 39.0803 128.53 38.7055C127.991 38.3233 127.172 38.1319 126.071 38.1319C125.12 38.1319 124.34 38.2893 123.733 38.6043C123.125 38.9116 122.821 39.3052 122.821 39.7849H118.643C118.643 39.1177 118.981 38.4956 119.657 37.9183C120.334 37.3336 121.251 36.8762 122.409 36.5464C123.578 36.2166 124.879 36.0516 126.312 36.0516C128.49 36.0516 130.227 36.4114 131.522 37.1309C132.818 37.8432 133.483 38.8479 133.517 40.1449V45.6325C133.517 46.7272 133.752 47.6005 134.222 48.2528V48.4439H129.958ZM125.366 46.476C126.192 46.476 126.966 46.345 127.688 46.0826C128.421 45.82 128.972 45.4677 129.339 45.0253V42.7312H127.086C125.538 42.7312 124.375 42.9073 123.595 43.2598C122.816 43.6121 122.426 44.1108 122.426 44.7554C122.426 45.2802 122.69 45.6999 123.217 46.015C123.756 46.3223 124.472 46.476 125.366 46.476ZM142.339 48.4439H138.16V31.171H142.339V48.4439ZM151.349 48.4439H147.171V31.171H151.349V48.4439ZM164.109 48.6689C161.46 48.6689 159.311 48.1253 157.66 47.0382C156.021 45.9437 155.201 44.4894 155.201 42.6751V42.3378C155.201 41.1232 155.556 40.04 156.267 39.0878C156.989 38.1283 157.998 37.3822 159.293 36.8499C160.589 36.3176 162.034 36.0516 163.627 36.0516C166.16 36.0516 168.115 36.58 169.491 37.6371C170.878 38.6942 171.571 40.1898 171.571 42.124V43.226H159.414C159.54 44.2306 160.05 45.0253 160.945 45.61C161.85 46.1949 162.985 46.4871 164.349 46.4871C166.264 46.4871 167.822 45.9811 169.027 44.9692L171.279 46.3747C170.534 47.102 169.537 47.6679 168.287 48.0728C167.049 48.4703 165.656 48.6689 164.109 48.6689ZM163.61 38.2443C162.463 38.2443 161.535 38.5067 160.824 39.0315C160.125 39.5563 159.678 40.2874 159.483 41.2244H167.445V41.0219C167.353 40.1074 166.98 39.4176 166.327 38.9529C165.673 38.4806 164.767 38.2443 163.61 38.2443ZM180.066 33.3189V36.2763H183.35V38.3006H180.066V45.0929C180.066 45.5576 180.203 45.8949 180.479 46.1048C180.765 46.3073 181.27 46.4085 181.992 46.4085C182.473 46.4085 182.961 46.3711 183.454 46.296V48.4101C182.502 48.5826 181.585 48.6689 180.702 48.6689C177.492 48.6689 175.887 47.5106 175.887 45.194V38.3006H172.827V36.2763H175.887V33.3189H180.066Z" fill="white"/>
</g>
<defs>
<clipPath id="clip0_5_1791">
<rect width="189.74" height="52.6412" fill="white" transform="translate(0.369141 0.737793)"/>
</clipPath>
</defs>
</svg>
