<svg width="15" height="15" viewBox="0 0 15 15" fill="none" xmlns="http://www.w3.org/2000/svg">
<path d="M10.975 11.2312H4.025C1.5375 11.2312 0.78125 10.475 0.78125 7.9875V4.025C0.78125 1.5375 1.5375 0.78125 4.025 0.78125H10.9688C13.4562 0.78125 14.2125 1.5375 14.2125 4.025V7.98125C14.2188 10.475 13.4625 11.2312 10.975 11.2312ZM4.025 1.71875C2.0625 1.71875 1.71875 2.0625 1.71875 4.025V7.98125C1.71875 9.94375 2.0625 10.2875 4.025 10.2875H10.9688C12.9312 10.2875 13.275 9.94375 13.275 7.98125V4.025C13.275 2.0625 12.9312 1.71875 10.9688 1.71875H4.025Z" fill="white"/>
<path d="M7.5 14.2187C7.24375 14.2187 7.03125 14.0062 7.03125 13.75V10.7625C7.03125 10.5062 7.24375 10.2937 7.5 10.2937C7.75625 10.2937 7.96875 10.5062 7.96875 10.7625V13.75C7.96875 14.0062 7.75625 14.2187 7.5 14.2187Z" fill="white"/>
<path d="M13.75 8.59375H1.25C0.99375 8.59375 0.78125 8.38125 0.78125 8.125C0.78125 7.86875 0.99375 7.65625 1.25 7.65625H13.75C14.0063 7.65625 14.2188 7.86875 14.2188 8.125C14.2188 8.38125 14.0063 8.59375 13.75 8.59375Z" fill="white"/>
<path d="M10.3125 14.2188H4.6875C4.43125 14.2188 4.21875 14.0063 4.21875 13.75C4.21875 13.4938 4.43125 13.2812 4.6875 13.2812H10.3125C10.5687 13.2812 10.7812 13.4938 10.7812 13.75C10.7812 14.0063 10.5687 14.2188 10.3125 14.2188Z" fill="white"/>
</svg>
