<svg width="170" height="54" viewBox="0 0 170 54" fill="none" xmlns="http://www.w3.org/2000/svg">
<g clip-path="url(#clip0_5_1802)">
<path fill-rule="evenodd" clip-rule="evenodd" d="M76.1199 24.918C75.5119 21.1719 72.4724 18.1069 68.8249 18.1069C65.3293 18.1069 62.1378 20.8314 61.5298 24.918H76.1199ZM61.3778 29.3454C62.4417 33.9429 65.6332 36.4969 69.2809 36.4969C72.3204 36.4969 75.056 34.624 76.7278 32.7509L79.7673 36.8376C76.5758 40.4135 72.6244 41.9459 69.2809 41.9459C61.6818 41.9459 56.2104 34.9645 56.2104 27.1318C56.2104 19.1286 61.8337 12.9985 68.8249 12.9985C76.1199 12.9985 81.5913 19.4691 81.5913 29.175H61.3778V29.3454Z" fill="white"/>
<path fill-rule="evenodd" clip-rule="evenodd" d="M105.602 27.6419C105.602 22.7039 102.106 18.7874 97.6986 18.7874C93.2913 18.7874 89.7957 22.7039 89.7957 27.6419C89.7957 32.4097 93.2913 36.3261 97.6986 36.3261C102.106 36.3261 105.602 32.4097 105.602 27.6419ZM105.45 16.5738V2.44067H110.465V41.6048H106.21V38.0289C104.082 40.4128 100.89 41.9452 97.5468 41.9452C90.4037 41.9452 84.6284 35.4748 84.6284 27.4717C84.6284 19.4686 90.4037 12.998 97.5468 12.998C100.586 13.1682 103.474 14.3602 105.45 16.5738Z" fill="white"/>
<path fill-rule="evenodd" clip-rule="evenodd" d="M134.329 27.6418C134.329 22.7036 130.833 18.7873 126.426 18.7873C122.17 18.7873 118.523 22.7036 118.523 27.6418C118.523 32.4096 122.018 36.4963 126.426 36.4963C130.833 36.326 134.329 32.4096 134.329 27.6418ZM139.344 38.3693C139.344 49.0969 133.569 53.1836 127.794 53.1836C125.666 53.1836 123.082 52.6728 120.65 50.7997L122.626 46.2022C124.298 47.2238 125.666 47.905 127.49 47.905C131.593 47.905 134.481 44.6695 134.481 38.5396C132.353 40.7532 129.465 42.1155 126.426 42.1155C119.283 42.1155 113.507 35.6449 113.507 27.6418C113.507 19.6387 119.283 13.1681 126.426 13.1681C129.769 13.1681 132.657 14.7006 134.937 17.0845V13.6789H139.344V38.3693Z" fill="white"/>
<path fill-rule="evenodd" clip-rule="evenodd" d="M162.443 24.9181C161.835 21.1719 158.795 18.1069 155.147 18.1069C151.652 18.1069 148.461 20.8313 147.853 24.9181H162.443ZM147.701 29.3453C148.764 33.9428 151.956 36.4971 155.603 36.4971C158.643 36.4971 161.379 34.6239 163.051 32.7508L166.09 36.8375C162.899 40.4134 158.947 41.9459 155.603 41.9459C148.004 41.9459 142.533 34.9644 142.533 27.1317C142.533 19.1286 148.156 12.9985 155.147 12.9985C162.443 12.9985 167.914 19.4691 167.914 29.1749H147.701V29.3453Z" fill="white"/>
<path fill-rule="evenodd" clip-rule="evenodd" d="M50.5067 8.37476L35.8715 53.5238H1.98975L9.60814 29.9385H23.0405L30.0575 8.37476H50.5067Z" fill="#66EDA8"/>
<path fill-rule="evenodd" clip-rule="evenodd" d="M27.0529 0.737793L19.4345 24.3231H1.19043L8.80882 0.737793H27.0529Z" fill="#66EDA8"/>
</g>
<defs>
<clipPath id="clip0_5_1802">
<rect width="169.947" height="52.7867" fill="white" transform="translate(0.0498047 0.737793)"/>
</clipPath>
</defs>
</svg>
