<svg width="170" height="53" viewBox="0 0 170 53" fill="none" xmlns="http://www.w3.org/2000/svg">
<g clip-path="url(#clip0_5_1822)">
<mask id="mask0_5_1822" style="mask-type:luminance" maskUnits="userSpaceOnUse" x="0" y="0" width="170" height="53">
<path d="M169.44 0.0626831H0.890625V52.415H169.44V0.0626831Z" fill="white"/>
</mask>
<g mask="url(#mask0_5_1822)">
<path d="M35.2564 14.6802L20.5332 0.0626221V8.23538L29.9783 17.529L28.8671 22.8528H20.5332V29.6246H28.8671L29.9783 34.9486L20.5332 44.2423V52.4149L35.2564 37.8441L32.8488 26.2621L35.2564 14.6802Z" fill="url(#paint0_linear_5_1822)"/>
<path d="M7.72392 29.6246H16.027V22.8528H7.69305L6.61273 17.529L16.027 8.23538V0.0626221L1.30371 14.6802L3.71129 26.2621L1.30371 37.8441L16.0579 52.4149V44.2423L6.61273 34.9486L7.72392 29.6246Z" fill="url(#paint1_linear_5_1822)"/>
<mask id="mask1_5_1822" style="mask-type:alpha" maskUnits="userSpaceOnUse" x="1" y="0" width="35" height="53">
<path d="M35.2564 14.6802L20.5332 0.0626221V8.23538L29.9783 17.529L28.8671 22.8528H20.5332V29.6246H28.8671L29.9783 34.9486L20.5332 44.2423V52.4149L35.2564 37.8441L32.8488 26.2621L35.2564 14.6802Z" fill="url(#paint2_linear_5_1822)"/>
<path d="M7.72392 29.6246H16.027V22.8528H7.69305L6.61273 17.529L16.027 8.23538V0.0626221L1.30371 14.6802L3.71129 26.2621L1.30371 37.8441L16.0579 52.4149V44.2423L6.61273 34.9486L7.72392 29.6246Z" fill="url(#paint3_linear_5_1822)"/>
</mask>
<g mask="url(#mask1_5_1822)">
<path d="M35.0331 0.0626221H1.32324V52.4149H35.0331V0.0626221Z" fill="url(#paint4_linear_5_1822)"/>
</g>
<path d="M64.5511 14.4592V19.0361H50.6214V23.7195H62.4569V28.2963H50.6214V33.4409H64.5511V38.0177H47.0479V14.4592H64.5511Z" fill="white"/>
<path d="M66.5273 38.0177L74.5305 26.0967L66.754 14.4592H71.6738L77.1604 22.8679L82.4202 14.4592H87.0225L79.2688 26.0967L87.2719 38.0177H82.3068L77.1604 29.3606L71.2885 38.0177H66.5273Z" fill="white"/>
<path d="M96.8679 14.4592C103.352 14.4592 107.251 19.3758 107.251 26.2384C107.251 33.1012 103.352 38.0177 96.8679 38.0177C90.3839 38.0177 86.5068 33.1012 86.5068 26.2384C86.5068 19.3758 90.3839 14.4592 96.8679 14.4592ZM96.8679 18.8637C92.9686 18.8637 90.0943 21.834 90.0943 26.2384C90.0943 30.6431 92.9686 33.6132 96.8679 33.6132C100.79 33.6132 103.664 30.6431 103.664 26.2384C103.664 21.834 100.79 18.8637 96.8679 18.8637Z" fill="white"/>
<path d="M120.175 14.4592C125.368 14.4592 128.497 18.8233 128.497 26.203C128.497 33.6537 125.391 38.0177 120.22 38.0177H109.698V14.4592H120.175ZM124.824 26.203C124.824 21.5905 123.01 19.0361 119.721 19.0361H113.258V33.4409H119.721C123.01 33.4409 124.824 30.8509 124.824 26.203Z" fill="white"/>
<path d="M140.272 38.0177C134.805 38.0177 130.656 34.2596 130.656 27.3346V14.4592H134.235V26.8127C134.235 31.0929 137.174 33.0764 140.272 33.0764C143.395 33.0764 146.334 31.1277 146.334 26.8127V14.4592H149.888V27.3346C149.888 34.2596 145.764 38.0177 140.272 38.0177Z" fill="white"/>
<path d="M159.904 38.0177C156.965 38.0177 153.798 37.1984 151.549 35.6618L152.72 31.2916C154.74 32.6916 157.518 33.5792 160.018 33.5792C162.889 33.5792 165.573 32.6574 165.573 31.0184C165.573 29.8235 164.724 29.3115 162.956 28.9015L157.953 28.0822C154.096 27.2969 152.214 25.2826 152.214 21.7317C152.214 17.1565 155.405 14.4592 160.087 14.4592C162.911 14.4592 166.789 15.2445 168.786 16.6103L167.616 20.7757C165.642 19.5466 162.29 18.9319 159.926 18.9319C157.494 18.9319 155.886 19.7856 155.886 21.3562C155.886 22.4487 156.691 22.995 158.756 23.4388L163.621 24.2583C167.34 25.0436 169.268 26.9556 169.268 30.6771C169.268 35.3888 165.183 38.0177 159.904 38.0177Z" fill="white"/>
</g>
</g>
<defs>
<linearGradient id="paint0_linear_5_1822" x1="30.4934" y1="56.0142" x2="9.39075" y2="-1.56728" gradientUnits="userSpaceOnUse">
<stop stop-color="#0B46F9"/>
<stop offset="1" stop-color="#BBFBE0"/>
</linearGradient>
<linearGradient id="paint1_linear_5_1822" x1="30.4938" y1="56.0142" x2="9.39094" y2="-1.56718" gradientUnits="userSpaceOnUse">
<stop stop-color="#0B46F9"/>
<stop offset="1" stop-color="#BBFBE0"/>
</linearGradient>
<linearGradient id="paint2_linear_5_1822" x1="30.4934" y1="56.0142" x2="9.39075" y2="-1.56728" gradientUnits="userSpaceOnUse">
<stop stop-color="#0B46F9"/>
<stop offset="1" stop-color="#BBFBE0"/>
</linearGradient>
<linearGradient id="paint3_linear_5_1822" x1="30.4938" y1="56.0142" x2="9.39094" y2="-1.56718" gradientUnits="userSpaceOnUse">
<stop stop-color="#0B46F9"/>
<stop offset="1" stop-color="#BBFBE0"/>
</linearGradient>
<linearGradient id="paint4_linear_5_1822" x1="3.48413" y1="11.8419" x2="24.8734" y2="22.3916" gradientUnits="userSpaceOnUse">
<stop offset="0.119792" stop-color="#8952FF" stop-opacity="0.87"/>
<stop offset="1" stop-color="#DABDFF" stop-opacity="0"/>
</linearGradient>
<clipPath id="clip0_5_1822">
<rect width="168.549" height="52.3523" fill="white" transform="translate(0.890137 0.0626221)"/>
</clipPath>
</defs>
</svg>
