<svg width="15" height="15" viewBox="0 0 15 15" fill="none" xmlns="http://www.w3.org/2000/svg">
<path d="M7.5 13.5312C7.30625 13.5312 7.11875 13.5063 6.9625 13.45C4.575 12.6313 0.78125 9.725 0.78125 5.43125C0.78125 3.24375 2.55 1.46875 4.725 1.46875C5.78125 1.46875 6.76875 1.88125 7.5 2.61875C8.23125 1.88125 9.21875 1.46875 10.275 1.46875C12.45 1.46875 14.2188 3.25 14.2188 5.43125C14.2188 9.73125 10.425 12.6313 8.0375 13.45C7.88125 13.5063 7.69375 13.5312 7.5 13.5312ZM4.725 2.40625C3.06875 2.40625 1.71875 3.7625 1.71875 5.43125C1.71875 9.7 5.825 12.075 7.26875 12.5688C7.38125 12.6062 7.625 12.6062 7.7375 12.5688C9.175 12.075 13.2875 9.70625 13.2875 5.43125C13.2875 3.7625 11.9375 2.40625 10.2812 2.40625C9.33125 2.40625 8.45 2.85 7.88125 3.61875C7.70625 3.85625 7.30625 3.85625 7.13125 3.61875C6.55 2.84375 5.675 2.40625 4.725 2.40625Z" fill="white"/>
</svg>
