<svg width="25" height="25" viewBox="0 0 25 25" fill="none" xmlns="http://www.w3.org/2000/svg">
<g clip-path="url(#clip0_4_230)">
<path d="M18.0484 16.3207C21.0101 14.6945 23.2553 13.4554 23.4488 13.359C24.0678 13.0298 24.7072 12.1585 23.4488 11.4816C23.0425 11.2688 20.855 10.0682 18.0484 8.51996L14.1577 12.4492L18.0484 16.3206V16.3207Z" fill="#FFD900"/>
<path d="M14.1579 12.4493L1.76953 24.935C2.06032 24.9735 2.3886 24.8964 2.77564 24.6836C3.58824 24.2388 12.2025 19.5345 18.0486 16.3216L14.1579 12.4493Z" fill="#F43249"/>
<path d="M14.1577 12.4493L18.0484 8.53931C18.0484 8.53931 3.64672 0.679733 2.77537 0.215773C2.44708 0.0213384 2.0792 -0.0364171 1.75 0.0213384L14.1577 12.4493Z" fill="#00EE76"/>
<path d="M14.1576 12.4493L1.74991 0.0213623C1.24635 0.137786 0.820801 0.582676 0.820801 1.49253V23.4638C0.820801 24.2965 1.15009 24.8964 1.76916 24.9542L14.1576 12.4493Z" fill="#00D3FF"/>
</g>
<defs>
<clipPath id="clip0_4_230">
<rect width="23.36" height="25" fill="white" transform="translate(0.819824)"/>
</clipPath>
</defs>
</svg>
