<svg width="168" height="53" viewBox="0 0 168 53" fill="none" xmlns="http://www.w3.org/2000/svg">
<g clip-path="url(#clip0_5_1759)">
<mask id="mask0_5_1759" style="mask-type:luminance" maskUnits="userSpaceOnUse" x="0" y="0" width="168" height="53">
<path d="M167.993 0.359192H0.398926V52.4149H167.993V0.359192Z" fill="white"/>
</mask>
<g mask="url(#mask0_5_1759)">
<path fill-rule="evenodd" clip-rule="evenodd" d="M52.9471 6.15107C53.004 6.20889 53.0382 6.28088 53.0451 6.35659C53.0801 6.7279 56.1987 43.5635 27.0611 52.1425C26.9734 52.1683 26.8786 52.1683 26.791 52.1425C-2.34568 43.5635 0.772705 6.7279 0.807035 6.35659C0.814036 6.28111 0.84831 6.20941 0.904961 6.15165C0.96161 6.09388 1.0378 6.05302 1.12277 6.03474L26.8274 0.622093C26.8922 0.608879 26.9597 0.608879 27.0248 0.622093L52.7282 6.03474C52.8137 6.05252 52.89 6.09324 52.9471 6.15107ZM48.2164 10.0841C48.2627 10.1309 48.2909 10.1891 48.2969 10.2506H48.2997C48.3286 10.5534 50.8791 40.6263 27.0367 47.6292C26.9668 47.6521 26.8894 47.6521 26.8195 47.6292C2.97587 40.6263 5.52762 10.5534 5.55624 10.2506C5.56178 10.1891 5.58968 10.1307 5.63596 10.0839C5.68225 10.0371 5.74452 10.0041 5.81379 9.9898L26.8439 5.56824C26.8973 5.55671 26.9529 5.55671 27.0062 5.56824L48.0386 9.9898C48.1076 10.0043 48.1696 10.0373 48.2164 10.0841Z" fill="#798CE5"/>
<path d="M26.63 12.1685L12.6071 15.1145C12.5609 15.1247 12.5196 15.1472 12.4887 15.1786C12.458 15.2101 12.4393 15.2492 12.4354 15.2903C12.4173 15.4925 10.7165 35.5413 26.6097 40.2105C26.6576 40.2235 26.7092 40.2235 26.7568 40.2105C42.65 35.5405 40.9503 15.4925 40.9313 15.2895C40.9273 15.2483 40.9088 15.209 40.8777 15.1776C40.8468 15.1462 40.8049 15.1241 40.7584 15.1145L26.7365 12.1677C26.7017 12.1596 26.6648 12.1604 26.63 12.1685Z" fill="#798CE5"/>
<path d="M74.3436 29.1853V26.2565H79.8265V34.8699C77.1865 35.2441 75.0453 35.4317 73.402 35.4317C70.4669 35.4317 68.4454 34.74 67.3377 33.3575C66.2486 31.9748 65.7041 29.7783 65.7041 26.7691C65.7041 23.7601 66.2763 21.5889 67.4208 20.2539C68.5653 18.9207 70.5129 18.2534 73.2637 18.2534C74.9804 18.2534 76.8359 18.4245 78.8296 18.7658L79.8265 18.9369L79.7156 21.5477C77.5003 21.3365 75.6821 21.2301 74.2604 21.2301C72.8575 21.2301 71.8698 21.3763 71.2975 21.669C70.7253 21.9621 70.3006 22.5071 70.0238 23.304C69.7654 24.0854 69.6362 25.4358 69.6362 27.3547C69.6362 29.2585 69.9039 30.5918 70.4393 31.3566C70.9745 32.1212 72.0822 32.504 73.7621 32.504L76.0605 32.4057V29.1853H74.3436Z" fill="#798CE5"/>
<path d="M87.0914 29.5992C87.0914 31.5353 88.2081 32.5037 90.4419 32.5037C92.6758 32.5037 93.7927 31.5353 93.7927 29.5992V18.5457H97.6139V29.5263C97.6139 31.5593 97.0141 33.0559 95.814 34.0163C94.6325 34.9595 92.8418 35.4314 90.4419 35.4314C88.042 35.4314 86.2422 34.9595 85.0421 34.0163C83.8608 33.0559 83.27 31.5593 83.27 29.5263V18.5457H87.0914V29.5992Z" fill="#798CE5"/>
<path d="M99.8408 35.1385L104.078 18.5457H111.333L115.569 35.1385H111.748L111 32.1377H104.41L103.662 35.1385H99.8408ZM107.041 21.3281L105.13 29.209H110.28L108.37 21.3281H107.041Z" fill="#798CE5"/>
<path d="M121.89 29.575V35.1385H118.069V18.5457H125.38C129.81 18.5457 132.026 20.3678 132.026 24.0118C132.026 26.1755 131.103 27.7698 129.256 28.7949L131.942 35.1385H127.761L125.574 29.575H121.89ZM125.435 26.6959C126.339 26.6959 127.013 26.452 127.457 25.9637C127.9 25.4764 128.121 24.8331 128.121 24.0358C128.121 23.2388 127.881 22.6051 127.401 22.133C126.94 21.6615 126.266 21.425 125.38 21.425H121.89V26.6959H125.435Z" fill="#798CE5"/>
<path d="M141.595 35.1385H135.254V18.5457H141.595C143.22 18.5457 144.558 18.7006 145.61 19.01C146.663 19.3018 147.475 19.7988 148.047 20.4986C148.638 21.1814 149.044 21.994 149.265 22.9387C149.487 23.8652 149.598 25.0775 149.598 26.5744C149.598 28.0704 149.496 29.3145 149.293 30.3071C149.091 31.2832 148.702 32.1617 148.13 32.942C147.576 33.7064 146.764 34.2682 145.693 34.626C144.623 34.9679 143.257 35.1385 141.595 35.1385ZM145.61 28.5501C145.647 28.0303 145.666 27.3137 145.666 26.4028C145.666 25.4764 145.629 24.7356 145.555 24.1826C145.481 23.6298 145.306 23.1249 145.029 22.6698C144.752 22.2139 144.337 21.9054 143.783 21.7422C143.247 21.5634 142.518 21.4743 141.595 21.4743H139.075V32.211H141.595C142.98 32.211 143.986 31.9013 144.614 31.2832C145.149 30.7791 145.481 29.8681 145.61 28.5501Z" fill="#798CE5"/>
<path d="M151.061 35.1385L155.297 18.5457H162.552L166.789 35.1385H162.968L162.22 32.1377H155.629L154.882 35.1385H151.061ZM158.26 21.3281L156.349 29.209H161.5L159.589 21.3281H158.26Z" fill="#798CE5"/>
</g>
</g>
<defs>
<clipPath id="clip0_5_1759">
<rect width="167.594" height="52.0557" fill="white" transform="translate(0.399414 0.359192)"/>
</clipPath>
</defs>
</svg>
