<svg width="159" height="50" viewBox="0 0 159 50" fill="none" xmlns="http://www.w3.org/2000/svg">
<g clip-path="url(#clip0_5_1724)">
<mask id="mask0_5_1724" style="mask-type:luminance" maskUnits="userSpaceOnUse" x="0" y="0" width="159" height="50">
<path d="M158.856 0.345703H0.876465V49.415H158.856V0.345703Z" fill="white"/>
</mask>
<g mask="url(#mask0_5_1724)">
<path d="M59.5388 12.5767V26.4223H46.2489V14.3646C46.2489 13.3736 45.4721 12.5698 44.5148 12.5698H40.0156V45.7147C40.0156 46.7055 40.7922 47.5093 41.7497 47.5093H46.2489V32.0492H59.5454V45.7077C59.5321 46.6985 60.2954 47.5163 61.2526 47.5302H61.2794H65.7787V14.3646C65.7787 13.3736 65.0021 12.5698 64.0446 12.5698H59.5388V12.5767ZM85.9311 21.2389V37.8494C85.9444 39.36 85.1812 40.7668 83.9225 41.5428C80.401 43.6496 76.752 41.0093 76.752 37.5444V23.0337C76.752 22.0427 75.9754 21.2389 75.018 21.2389H70.5187V38.1404C70.5322 43.5871 74.7904 47.9945 80.0527 48.0222H82.6104C87.8794 48.0083 92.1509 43.5871 92.1644 38.1335V23.0337C92.1644 22.0427 91.3876 21.2389 90.4303 21.2389H85.9311Z" fill="white"/>
<path d="M154.001 47.5303H158.5V23.997C158.5 23.006 157.723 22.2022 156.766 22.2022H152.267V45.7217C152.26 46.7125 153.03 47.5233 153.987 47.5303H154.001Z" fill="#2CA6E0"/>
<path d="M158.596 17.4951C159.33 15.66 158.488 13.5561 156.715 12.7959C154.942 12.0357 152.909 12.9072 152.175 14.7424C151.441 16.5775 152.283 18.6814 154.056 19.4416C155.829 20.2017 157.861 19.3303 158.596 17.4951Z" fill="#2CA6E0"/>
<path d="M108.247 21.2249C101.72 21.2249 96.377 26.055 96.377 32.8114V36.4633C96.377 43.2198 101.72 48.0222 108.247 48.0222C114.775 48.0222 120.118 43.2198 120.118 36.4633V32.8114C120.125 26.055 114.782 21.2249 108.247 21.2249ZM113.858 36.8999C113.858 40.0945 111.334 42.222 108.241 42.222C105.147 42.222 102.63 40.0945 102.63 36.8999V32.3402C102.63 29.1456 105.154 27.0181 108.241 27.0181C111.327 27.0181 113.858 29.1456 113.858 32.3402V36.8999Z" fill="white"/>
<path d="M136.199 21.2248C134.245 21.211 132.316 21.6683 130.556 22.5485V14.3991C130.556 13.4082 129.779 12.6043 128.821 12.6043H124.322V36.4633C124.322 43.2197 129.665 48.0221 136.193 48.0221C142.721 48.0221 148.063 43.2197 148.063 36.4633V32.8114C148.07 26.0549 142.741 21.2248 136.199 21.2248ZM141.817 36.8998C141.817 40.0944 139.293 42.2219 136.199 42.2219C133.113 42.2219 130.589 40.0944 130.589 36.8998V32.3401C130.589 29.1455 133.113 27.0182 136.199 27.0182C139.286 27.0182 141.817 29.1455 141.817 32.3401V36.8998Z" fill="#2CA6E0"/>
<path d="M21.1767 15.4388C21.1767 8.39819 17.8626 2.33467 15.3385 0.366642C15.3385 0.366642 15.1443 0.255767 15.1644 0.539886C14.9569 14.1429 8.24162 17.8295 4.55259 22.7912C-3.96368 34.253 3.95001 46.8164 12.0244 49.138C16.5235 50.4408 10.9799 46.8374 10.2636 39.2354C9.38649 30.0604 21.1767 23.0476 21.1767 15.4388Z" fill="white"/>
<path d="M25.0454 20.0746C24.9918 20.0399 24.9181 20.0123 24.8713 20.1023C24.7307 21.8139 23.0435 25.4728 20.901 28.8406C13.6368 40.247 17.7744 45.7492 20.1044 48.7082C21.4568 50.4198 20.1044 48.7082 23.4787 46.955C27.6497 44.3356 30.3545 39.8035 30.7562 34.7726C31.4192 26.6648 26.7191 21.5576 25.0454 20.0746Z" fill="#2CA6E0"/>
</g>
</g>
<defs>
<clipPath id="clip0_5_1724">
<rect width="157.979" height="49.0693" fill="white" transform="translate(0.875977 0.345642)"/>
</clipPath>
</defs>
</svg>
