<svg width="155" height="49" viewBox="0 0 155 49" fill="none" xmlns="http://www.w3.org/2000/svg">
<g clip-path="url(#clip0_5_1781)">
<mask id="mask0_5_1781" style="mask-type:luminance" maskUnits="userSpaceOnUse" x="0" y="0" width="155" height="49">
<path d="M154.934 0.737793H0.822266V48.6058H154.934V0.737793Z" fill="white"/>
</mask>
<g mask="url(#mask0_5_1781)">
<path d="M47.2119 37.1116V2.98908H49.2659V34.8587H63.3225V37.11L47.2119 37.1116ZM73.4757 37.5842C70.2899 37.5842 67.8292 36.398 65.9851 34.1467C64.2446 31.8969 63.3147 28.7018 63.3147 24.5507C63.3147 20.5222 64.132 17.2059 65.8802 14.8349C67.6208 12.3443 69.8819 11.1581 72.8567 11.1581C75.4234 11.1581 77.4749 12.2231 79.0147 14.2426C80.5558 16.3727 81.2681 19.2163 81.2681 22.7735V24.6718H65.3687C65.3687 28.1078 66.09 30.8319 67.5262 32.6089C68.8576 34.5087 70.9089 35.3315 73.4757 35.3315C74.7021 35.3315 75.8327 35.2118 76.7561 34.9815C77.9864 34.6788 79.1888 34.2416 80.3474 33.6754V35.9252C79.1208 36.5177 77.9903 36.9903 76.9645 37.2313C75.8136 37.4739 74.6457 37.5921 73.4757 37.5842ZM72.8567 13.2972C70.6992 13.2972 69.0648 14.1319 67.7256 15.6681C66.498 17.3271 65.6716 19.5768 65.4723 22.6614H79.0147C79.0147 19.698 78.5018 17.4467 77.3713 15.7893C76.3456 14.1214 74.8057 13.2972 72.8567 13.2972ZM91.942 11.2777C93.4818 11.2777 94.9167 11.6308 96.0472 12.2231C97.1778 12.9367 98.2048 14.0017 99.1269 15.6592H99.2305C99.1269 13.6502 99.1269 11.7504 99.1269 9.85216V0.737793H101.075V37.1116H99.7446L99.2318 33.2028C97.5871 36.0449 95.1253 37.5842 92.0456 37.5842C88.9671 37.5842 86.7138 36.5177 85.0703 34.2679C83.4256 32.1378 82.7134 28.9321 82.7134 24.793C82.7134 20.4101 83.5292 17.0862 85.0703 14.7242C86.6089 12.3533 88.9671 11.2777 91.942 11.2777ZM91.942 13.2972C89.585 13.2972 87.7408 14.2426 86.5053 16.262C85.2775 18.1603 84.6611 21.0038 84.6611 24.793C84.6611 32.0181 87.1218 35.5738 91.942 35.5738C94.4038 35.5738 96.2481 34.7405 97.3786 33.0817C98.5092 31.4242 99.1191 28.7018 99.1191 24.7825V24.431C99.1191 20.5222 98.5014 17.6786 97.3786 16.0212C96.3529 14.1214 94.5074 13.2972 91.942 13.2972ZM122.406 11.7594V13.4183L117.891 13.7699C119.117 15.5485 119.735 17.4467 119.735 19.4571C119.735 21.9492 119.014 23.8385 117.579 25.3854C116.143 26.9231 114.299 27.6352 111.932 27.6352C110.907 27.6352 110.193 27.6352 109.88 27.5155C109.063 27.9882 108.445 28.5806 108.036 29.1729C107.628 29.8865 107.419 30.4788 107.419 31.303C107.419 32.1287 107.724 32.7212 108.236 33.0832C108.749 33.4346 109.671 33.6754 110.907 33.6754H114.7C117.057 33.6754 118.901 34.2679 120.137 35.333C121.371 36.398 122.086 38.0554 122.086 40.3068C122.086 43.0292 121.162 45.0487 119.319 46.4667C117.474 47.8834 114.804 48.5968 111.316 48.5968C108.548 48.5968 106.392 48.0045 104.852 46.6972C103.313 45.5123 102.599 43.7338 102.599 41.6037C102.599 39.825 103.112 38.4085 104.035 37.2223C104.957 36.0361 106.289 35.3225 107.827 34.8513C107.209 34.4997 106.601 34.0181 106.289 33.4346C105.889 32.8665 105.67 32.1565 105.67 31.4242C105.67 29.7668 106.593 28.229 108.437 26.9216C107.209 26.3292 106.184 25.3854 105.462 24.0795C104.741 22.7735 104.435 21.2358 104.435 19.5768C104.435 17.0862 105.158 14.9546 106.488 13.4183C107.924 11.8806 109.768 11.167 112.134 11.167C113.569 11.167 114.699 11.2867 115.518 11.6397H122.39V11.7594H122.406ZM104.557 41.3807C104.557 44.8167 106.81 46.5954 111.325 46.5954C117.066 46.5954 119.945 44.4653 119.945 40.196C119.945 38.6583 119.537 37.5932 118.615 36.8796C117.692 36.166 116.258 35.8146 114.204 35.8146H110.611C106.61 35.9252 104.557 37.7039 104.557 41.3807ZM106.305 19.5768C106.305 21.5873 106.818 23.0143 107.845 24.199C108.871 25.2641 110.202 25.858 111.951 25.858C113.795 25.858 115.23 25.2641 116.152 24.199C117.179 23.1341 117.589 21.5963 117.589 19.5768C117.589 17.4467 117.075 15.7893 116.048 14.7242C115.021 13.6592 113.691 13.0653 111.847 13.0653C110.106 13.0653 108.662 13.6592 107.742 14.8454C106.715 15.9 106.305 17.5589 106.305 19.5768Z" fill="#888889"/>
<path d="M132.358 37.5843C129.174 37.5843 126.713 36.3981 124.868 34.1468C123.128 31.897 122.198 28.7017 122.198 24.5522C122.198 20.5223 123.017 17.2074 124.765 14.835C126.504 12.3443 128.767 11.1581 131.741 11.1581C134.307 11.1581 136.36 12.2232 137.899 14.2426C139.439 16.3727 140.153 19.2164 140.153 22.7736V24.6719H124.356C124.356 28.1079 125.077 30.8318 126.513 32.609C127.845 34.5088 129.897 35.333 132.463 35.333C133.689 35.333 134.82 35.2134 135.742 34.9814C136.973 34.6793 138.176 34.242 139.336 33.6755V35.9253C138.108 36.5193 136.977 36.9904 135.95 37.2312C134.765 37.4781 133.562 37.5963 132.358 37.5843ZM131.845 13.2972C129.689 13.2972 128.052 14.1319 126.713 15.6682C125.486 17.3271 124.66 19.5769 124.459 22.6615H138.004C138.004 19.6981 137.49 17.4468 136.359 15.7894C135.334 14.1214 133.794 13.2972 131.845 13.2972ZM151.539 11.2778C152.462 11.2778 153.488 11.399 154.515 11.6308L154.106 13.8806C153.163 13.6392 152.2 13.5213 151.235 13.5291C149.39 13.5291 147.851 14.4745 146.616 16.2516C145.389 18.1513 144.772 20.4012 144.772 23.2447V37.1115H142.718V11.7595H144.459L144.667 16.3817H144.772C145.694 14.4819 146.616 13.1865 147.642 12.473C148.878 11.6398 150.104 11.2778 151.539 11.2778ZM27.6239 1.92407H12.9483V24.6719H32.6436V7.84326C32.6514 4.64657 30.3914 1.92407 27.6239 1.92407ZM8.44156 1.92407H5.98095C3.21212 1.92407 0.848633 4.5269 0.848633 7.85073V10.6944H8.44156V1.92407ZM0.848633 16.0212H8.44156V24.7931H0.848633V16.0212ZM25.0572 38.7691H27.5178C30.2853 38.7691 32.6514 36.1661 32.6514 32.8408V30.0077H25.0572V38.7691ZM12.9483 30.0077H20.5425V38.7779H12.9483V30.0077ZM0.848633 30.0077V32.8498C0.848633 36.0465 3.10203 38.7779 5.97965 38.7779H8.44156V30.0077H0.848633Z" fill="#888889"/>
<path d="M47.2119 37.1116V2.98908H49.2659V34.8587H63.3225V37.11L47.2119 37.1116ZM73.4757 37.5842C70.2899 37.5842 67.8292 36.398 65.9851 34.1467C64.2446 31.8969 63.3147 28.7018 63.3147 24.5507C63.3147 20.5222 64.132 17.2059 65.8802 14.8349C67.6208 12.3443 69.8819 11.1581 72.8567 11.1581C75.4234 11.1581 77.4749 12.2231 79.0147 14.2426C80.5558 16.3727 81.2681 19.2163 81.2681 22.7735V24.6718H65.3687C65.3687 28.1078 66.09 30.8319 67.5262 32.6089C68.8576 34.5087 70.9089 35.3315 73.4757 35.3315C74.7021 35.3315 75.8327 35.2118 76.7561 34.9815C77.9864 34.6788 79.1888 34.2416 80.3474 33.6754V35.9252C79.1208 36.5177 77.9903 36.9903 76.9645 37.2313C75.8136 37.4739 74.6457 37.5921 73.4757 37.5842ZM72.8567 13.2972C70.6992 13.2972 69.0648 14.1319 67.7256 15.6681C66.498 17.3271 65.6716 19.5768 65.4723 22.6614H79.0147C79.0147 19.698 78.5018 17.4467 77.3713 15.7893C76.3456 14.1214 74.8057 13.2972 72.8567 13.2972ZM91.942 11.2777C93.4818 11.2777 94.9167 11.6308 96.0472 12.2231C97.1778 12.9367 98.2048 14.0017 99.1269 15.6592H99.2305C99.1269 13.6502 99.1269 11.7504 99.1269 9.85216V0.737793H101.075V37.1116H99.7446L99.2318 33.2028C97.5871 36.0449 95.1253 37.5842 92.0456 37.5842C88.9671 37.5842 86.7138 36.5177 85.0703 34.2679C83.4256 32.1378 82.7134 28.9321 82.7134 24.793C82.7134 20.4101 83.5292 17.0862 85.0703 14.7242C86.6089 12.3533 88.9671 11.2777 91.942 11.2777ZM91.942 13.2972C89.585 13.2972 87.7408 14.2426 86.5053 16.262C85.2775 18.1603 84.6611 21.0038 84.6611 24.793C84.6611 32.0181 87.1218 35.5738 91.942 35.5738C94.4038 35.5738 96.2481 34.7405 97.3786 33.0817C98.5092 31.4242 99.1191 28.7018 99.1191 24.7825V24.431C99.1191 20.5222 98.5014 17.6786 97.3786 16.0212C96.3529 14.1214 94.5074 13.2972 91.942 13.2972ZM122.406 11.7594V13.4183L117.891 13.7699C119.117 15.5485 119.735 17.4467 119.735 19.4571C119.735 21.9492 119.014 23.8385 117.579 25.3854C116.143 26.9231 114.299 27.6352 111.932 27.6352C110.907 27.6352 110.193 27.6352 109.88 27.5155C109.063 27.9882 108.445 28.5806 108.036 29.1729C107.628 29.8865 107.419 30.4788 107.419 31.303C107.419 32.1287 107.724 32.7212 108.236 33.0832C108.749 33.4346 109.671 33.6754 110.907 33.6754H114.7C117.057 33.6754 118.901 34.2679 120.137 35.333C121.371 36.398 122.086 38.0554 122.086 40.3068C122.086 43.0292 121.162 45.0487 119.319 46.4667C117.474 47.8834 114.804 48.5968 111.316 48.5968C108.548 48.5968 106.392 48.0045 104.852 46.6972C103.313 45.5123 102.599 43.7338 102.599 41.6037C102.599 39.825 103.112 38.4085 104.035 37.2223C104.957 36.0361 106.289 35.3225 107.827 34.8513C107.209 34.4997 106.601 34.0181 106.289 33.4346C105.889 32.8665 105.67 32.1565 105.67 31.4242C105.67 29.7668 106.593 28.229 108.437 26.9216C107.209 26.3292 106.184 25.3854 105.462 24.0795C104.741 22.7735 104.435 21.2358 104.435 19.5768C104.435 17.0862 105.158 14.9546 106.488 13.4183C107.924 11.8806 109.768 11.167 112.134 11.167C113.569 11.167 114.699 11.2867 115.518 11.6397H122.39V11.7594H122.406ZM104.557 41.3807C104.557 44.8167 106.81 46.5954 111.325 46.5954C117.066 46.5954 119.945 44.4653 119.945 40.196C119.945 38.6583 119.537 37.5932 118.615 36.8796C117.692 36.166 116.258 35.8146 114.204 35.8146H110.611C106.61 35.9252 104.557 37.7039 104.557 41.3807ZM106.305 19.5768C106.305 21.5873 106.818 23.0143 107.845 24.199C108.871 25.2641 110.202 25.858 111.951 25.858C113.795 25.858 115.23 25.2641 116.152 24.199C117.179 23.1341 117.589 21.5963 117.589 19.5768C117.589 17.4467 117.075 15.7893 116.048 14.7242C115.021 13.6592 113.691 13.0653 111.847 13.0653C110.106 13.0653 108.662 13.6592 107.742 14.8454C106.715 15.9 106.305 17.5589 106.305 19.5768Z" fill="white"/>
<path d="M132.358 37.5843C129.174 37.5843 126.713 36.3981 124.868 34.1468C123.128 31.897 122.198 28.7017 122.198 24.5522C122.198 20.5223 123.017 17.2074 124.765 14.835C126.504 12.3443 128.767 11.1581 131.741 11.1581C134.307 11.1581 136.36 12.2232 137.899 14.2426C139.439 16.3727 140.153 19.2164 140.153 22.7736V24.6719H124.356C124.356 28.1079 125.077 30.8318 126.513 32.609C127.845 34.5088 129.897 35.333 132.463 35.333C133.689 35.333 134.82 35.2134 135.742 34.9814C136.973 34.6793 138.176 34.242 139.336 33.6755V35.9253C138.108 36.5193 136.977 36.9904 135.95 37.2312C134.765 37.4781 133.562 37.5963 132.358 37.5843ZM131.845 13.2972C129.689 13.2972 128.052 14.1319 126.713 15.6682C125.486 17.3271 124.66 19.5769 124.459 22.6615H138.004C138.004 19.6981 137.49 17.4468 136.359 15.7894C135.334 14.1214 133.794 13.2972 131.845 13.2972ZM151.539 11.2778C152.462 11.2778 153.488 11.399 154.515 11.6308L154.106 13.8806C153.163 13.6392 152.2 13.5213 151.235 13.5291C149.39 13.5291 147.851 14.4745 146.616 16.2516C145.389 18.1513 144.772 20.4012 144.772 23.2447V37.1115H142.718V11.7595H144.459L144.667 16.3817H144.772C145.694 14.4819 146.616 13.1865 147.642 12.473C148.878 11.6398 150.104 11.2778 151.539 11.2778ZM27.6239 1.92407H12.9483V24.6719H32.6436V7.84326C32.6514 4.64657 30.3914 1.92407 27.6239 1.92407ZM8.44156 1.92407H5.98095C3.21212 1.92407 0.848633 4.5269 0.848633 7.85073V10.6944H8.44156V1.92407ZM0.848633 16.0212H8.44156V24.7931H0.848633V16.0212ZM25.0572 38.7691H27.5178C30.2853 38.7691 32.6514 36.1661 32.6514 32.8408V30.0077H25.0572V38.7691ZM12.9483 30.0077H20.5425V38.7779H12.9483V30.0077ZM0.848633 30.0077V32.8498C0.848633 36.0465 3.10203 38.7779 5.97965 38.7779H8.44156V30.0077H0.848633Z" fill="white"/>
</g>
</g>
<defs>
<clipPath id="clip0_5_1781">
<rect width="154.112" height="47.868" fill="white" transform="translate(0.822266 0.737793)"/>
</clipPath>
</defs>
</svg>
