<svg width="169" height="54" viewBox="0 0 169 54" fill="none" xmlns="http://www.w3.org/2000/svg">
<mask id="mask0_5_1842" style="mask-type:luminance" maskUnits="userSpaceOnUse" x="0" y="0" width="169" height="54">
<path d="M168.615 0.737793H0V53.1106H168.615V0.737793Z" fill="white"/>
</mask>
<g mask="url(#mask0_5_1842)">
<path d="M94.6286 26.425C94.6286 28.1482 94.3198 29.775 93.6737 31.2807C93.0709 32.753 92.1345 34.1067 90.9191 35.2629C89.7104 36.4036 88.2478 37.302 86.4783 37.9812C84.7087 38.6621 82.7119 38.9763 80.4631 38.9763C78.2161 38.9763 76.2193 38.6375 74.4498 37.9812C72.6784 37.302 71.2177 36.4036 70.009 35.2629C68.7899 34.1093 67.8528 32.7548 67.2543 31.2807C66.6279 29.7194 66.314 28.0773 66.326 26.425C66.326 24.7245 66.6367 23.0993 67.2543 21.569C67.8459 20.0848 68.7834 18.7213 70.009 17.5624C71.2177 16.4217 72.7068 15.5232 74.4498 14.844C76.2193 14.1631 78.2161 13.8489 80.465 13.8489C82.7119 13.8489 84.7087 14.1877 86.4783 14.844C88.2497 15.5232 89.7104 16.4217 90.9191 17.5624C92.1278 18.7032 93.0277 20.0387 93.6737 21.569C94.3198 23.0993 94.6286 24.7245 94.6286 26.425ZM80.4915 34.9944C81.8689 34.9944 83.0776 34.7766 84.0911 34.3397C85.0972 33.9151 85.9803 33.3011 86.6753 32.5427C87.3941 31.734 87.9196 30.81 88.2212 29.8242C88.5677 28.7161 88.7377 27.5725 88.7271 26.425C88.7377 25.2772 88.5677 24.1337 88.2212 23.0256C87.9196 22.04 87.3941 21.1158 86.6753 20.3071C85.9874 19.5419 85.1019 18.9264 84.0893 18.5101C83.0492 18.0731 81.8689 17.8554 80.4915 17.8554C79.116 17.8554 77.9073 18.0731 76.8956 18.5101C75.889 18.9346 75.0053 19.5487 74.3096 20.3071C73.5912 21.116 73.0658 22.04 72.7636 23.0256C72.4174 24.1337 72.2472 25.2772 72.2578 26.425C72.2578 27.6392 72.4264 28.7799 72.7636 29.8242C73.1009 30.8684 73.6067 31.767 74.3096 32.5427C75.0106 33.3201 75.8555 33.9028 76.8938 34.3397C77.9073 34.7766 79.1123 34.9944 80.4915 34.9944ZM98.3381 38.564V14.2859H104.242V25.9387L113.993 14.2859H120.823L110.478 26.2791L121.524 38.564H114.218L104.213 26.6425V38.564H98.3381ZM123.886 14.2859H140.778V18.3398H129.814V24.2155H140.27V28.2465H129.814V34.5099H140.916V38.564H123.913V14.2859H123.886ZM161.828 14.2859H168.236L158.99 26.3513L168.404 38.564H161.94L155.87 30.2857L149.8 38.564H143.334L152.75 26.3529L143.504 14.2859H149.912L155.87 22.492L161.828 14.2859Z" fill="white"/>
<path d="M29.7896 24.0453C33.3672 24.0453 36.7986 22.8176 39.3283 20.632C41.8582 18.4465 43.2797 15.4823 43.2797 12.3916C43.2797 9.30079 41.8582 6.33661 39.3283 4.15111C36.7986 1.9656 33.3672 0.737793 29.7896 0.737793C26.2117 0.737793 22.7804 1.9656 20.2505 4.15111C17.7206 6.33661 16.2993 9.30079 16.2993 12.3916C16.2993 15.4823 17.7206 18.4465 20.2505 20.632C22.7804 22.8176 26.2117 24.0453 29.7896 24.0453Z" fill="#88BDF3"/>
<path d="M29.7893 52.2104C33.3674 52.2104 36.7991 50.9826 39.329 48.7969C41.8592 46.6113 43.2806 43.6468 43.2806 40.5558C43.2806 37.4648 41.8592 34.5005 39.329 32.3147C36.7991 30.1292 33.3674 28.9012 29.7893 28.9012C26.2117 28.9012 22.7804 30.129 20.2505 32.3145C17.7206 34.5001 16.2993 37.4642 16.2993 40.555C16.2993 43.6458 17.7206 46.6099 20.2505 48.7955C22.7804 50.981 26.2117 52.2104 29.7893 52.2104Z" fill="#3075EE"/>
<path d="M46.0952 38.1271C49.6728 38.1271 53.1038 36.8994 55.6334 34.714C58.1631 32.5287 59.5843 29.5648 59.5843 26.4742C59.5843 23.3836 58.1631 20.4196 55.6334 18.2342C53.1038 16.0489 49.6728 14.8212 46.0952 14.8212C42.5175 14.8212 39.0865 16.0489 36.5569 18.2342C34.0272 20.4196 32.606 23.3836 32.606 26.4742C32.606 29.5648 34.0272 32.5287 36.5569 34.714C39.0865 36.8994 42.5175 38.1271 46.0952 38.1271Z" fill="#5795F1"/>
<path d="M13.4892 38.1271C17.0667 38.1271 20.4978 36.8994 23.0275 34.714C25.5572 32.5287 26.9784 29.5648 26.9784 26.4742C26.9784 23.3836 25.5572 20.4196 23.0275 18.2342C20.4978 16.0489 17.0667 14.8212 13.4892 14.8212C9.91165 14.8212 6.48061 16.0489 3.9509 18.2342C1.42118 20.4196 0 23.3836 0 26.4742C0 29.5648 1.42118 32.5287 3.9509 34.714C6.48061 36.8994 9.91165 38.1271 13.4892 38.1271Z" fill="#205FEC"/>
<path d="M26.6176 23.7311C24.2124 23.2265 22.0143 22.1597 20.2639 20.648C18.5136 19.1362 17.2785 17.2376 16.6938 15.1599C21.5572 16.1796 25.4107 19.5052 26.6176 23.7311Z" fill="#134BEF"/>
<path d="M16.667 37.8113C17.2516 35.7343 18.4863 33.8362 20.2359 32.3248C21.9855 30.8133 24.1826 29.7467 26.5868 29.2417C25.4065 33.4414 21.5568 36.7671 16.667 37.8113Z" fill="#0932E8"/>
<path d="M32.9644 29.2172C35.3691 29.7222 37.5669 30.7888 39.3168 32.3005C41.0667 33.8123 42.3015 35.7108 42.8861 37.7884C38.0247 36.7687 34.1731 33.4414 32.9644 29.2172Z" fill="#164BEA"/>
<path d="M42.9173 15.1357C42.3325 17.2129 41.0974 19.1111 39.3475 20.6225C37.5976 22.134 35.4001 23.2004 32.9956 23.7052C34.1759 19.5056 38.0256 16.1799 42.9173 15.1357Z" fill="#3170F1"/>
</g>
</svg>
