<svg width="15" height="15" viewBox="0 0 15 15" fill="none" xmlns="http://www.w3.org/2000/svg">
<path d="M13.75 5.78125H1.25C0.99375 5.78125 0.78125 5.56875 0.78125 5.3125C0.78125 5.05625 0.99375 4.84375 1.25 4.84375H13.75C14.0063 4.84375 14.2188 5.05625 14.2188 5.3125C14.2188 5.56875 14.0063 5.78125 13.75 5.78125Z" fill="white"/>
<path d="M5 10.7812H3.75C3.49375 10.7812 3.28125 10.5688 3.28125 10.3125C3.28125 10.0563 3.49375 9.84375 3.75 9.84375H5C5.25625 9.84375 5.46875 10.0563 5.46875 10.3125C5.46875 10.5688 5.25625 10.7812 5 10.7812Z" fill="white"/>
<path d="M9.0625 10.7812H6.5625C6.30625 10.7812 6.09375 10.5688 6.09375 10.3125C6.09375 10.0563 6.30625 9.84375 6.5625 9.84375H9.0625C9.31875 9.84375 9.53125 10.0563 9.53125 10.3125C9.53125 10.5688 9.31875 10.7812 9.0625 10.7812Z" fill="white"/>
<path d="M10.975 13.2812H4.025C1.5375 13.2812 0.78125 12.5313 0.78125 10.0688V4.93125C0.78125 2.46875 1.5375 1.71875 4.025 1.71875H10.9687C13.4562 1.71875 14.2125 2.46875 14.2125 4.93125V10.0625C14.2187 12.5313 13.4625 13.2812 10.975 13.2812ZM4.025 2.65625C2.0625 2.65625 1.71875 2.99375 1.71875 4.93125V10.0625C1.71875 12 2.0625 12.3375 4.025 12.3375H10.9687C12.9312 12.3375 13.275 12 13.275 10.0625V4.93125C13.275 2.99375 12.9312 2.65625 10.9687 2.65625H4.025Z" fill="white"/>
</svg>
