<svg width="168" height="53" viewBox="0 0 168 53" fill="none" xmlns="http://www.w3.org/2000/svg">
<g clip-path="url(#clip0_5_1809)">
<mask id="mask0_5_1809" style="mask-type:luminance" maskUnits="userSpaceOnUse" x="0" y="0" width="168" height="53">
<path d="M167.387 0.737793H0.432129V52.5951H167.387V0.737793Z" fill="white"/>
</mask>
<g mask="url(#mask0_5_1809)">
<path fill-rule="evenodd" clip-rule="evenodd" d="M52.6188 29.4782C53.7767 30.1217 54.9656 30.2755 56.8937 30.3127C61.94 30.4262 63.7711 31.8685 63.7711 35.3593C63.7711 36.2343 63.6096 37.0317 63.3215 37.7154C63.0306 38.3961 62.4207 39.1189 61.5522 39.8383C60.6866 40.5627 59.1759 40.9014 57.0202 40.9014C53.9693 40.9014 51.7181 40.028 50.2074 38.2437C50.0431 38.0377 49.941 37.7712 49.918 37.487C49.9502 36.8404 50.2088 36.5372 50.6907 36.5372C50.9466 36.5372 51.1404 36.6118 51.3007 36.8031C52.425 38.2842 54.4514 39.1205 56.926 39.1205C60.2678 39.1205 62.1326 37.7527 62.1326 35.322C62.1636 34.2216 61.874 33.502 61.2641 33.1212C60.0739 32.3627 58.7895 32.1716 56.7321 32.1343C51.8473 32.0208 50.1751 30.731 50.1751 27.5029C50.1751 24.0899 52.7791 21.9248 56.7981 21.9248C59.2729 21.9248 61.2978 22.7595 62.8071 24.3152C62.9674 24.5063 63.0629 24.7365 63.0629 25.0768C63.0333 25.644 62.7735 25.9843 62.3237 26.0249C62.068 26.0249 61.8418 25.9472 61.6802 25.7559C60.5263 24.4301 58.823 23.7464 56.8951 23.7464C56.1222 23.7464 55.414 23.8226 54.804 24.0121C54.1127 24.2379 53.4523 24.5835 52.8437 25.0379C52.1704 25.5273 51.8473 26.3279 51.8163 27.5029C51.7841 28.4914 52.0722 29.1348 52.6188 29.4782ZM99.9546 30.0455V39.6116C99.9546 40.2937 99.6988 40.6373 99.1536 40.6746C98.6069 40.6373 98.3161 40.2937 98.3161 39.6116V30.2366C98.3161 25.9843 96.8041 23.7464 93.881 23.7464C90.9243 23.7464 89.0272 26.5176 89.0272 30.9578V39.6116C89.0272 40.2937 88.7713 40.6373 88.2247 40.6746C87.6794 40.6373 87.3899 40.2937 87.3899 39.6116V30.2366C87.3899 25.9843 85.8793 23.7464 82.9535 23.7464C79.9645 23.7464 78.101 26.5176 78.101 30.9578V39.6116C78.101 40.2937 77.8116 40.6373 77.2662 40.6746C76.7506 40.6373 76.4947 40.2937 76.4624 39.6116V23.2538C76.4947 22.531 76.7533 22.1907 77.2662 22.1534C77.8102 22.1907 78.0997 22.5341 78.0997 23.2554V25.2275H78.1657C79.1916 23.103 80.9608 21.9248 83.2416 21.9248C85.8146 21.9248 87.5502 23.2911 88.4172 25.8337H88.4832C89.5093 23.4062 91.3739 21.9248 94.1058 21.9248C97.9943 21.9248 99.9573 24.7706 99.9573 30.0471L99.9546 30.0455ZM120.259 31.4147C120.259 26.861 117.721 23.7464 113.926 23.7464C110.166 23.7464 107.534 26.8594 107.534 31.4147C107.534 35.9686 110.166 39.08 113.926 39.08C117.721 39.08 120.259 35.9686 120.259 31.4147ZM107.531 23.2522V25.871H107.596C107.917 25.2275 108.302 24.696 108.721 24.2034C109.171 23.7091 109.813 23.2149 110.648 22.7222C111.483 22.1907 112.641 21.9248 114.154 21.9248C116.466 21.9248 118.395 22.8744 119.777 24.5436C121.833 27.2743 121.833 29.4766 121.929 31.4147C121.929 32.8183 121.771 33.9557 121.223 35.74C120.388 38.3588 117.56 41.0554 114.154 40.903C112.642 40.903 111.484 40.6373 110.647 40.1413C108.977 39.08 108.238 38.2064 107.596 36.9555H107.531V46.6705C107.531 47.3529 107.275 47.6963 106.727 47.7336C106.18 47.6963 105.894 47.3529 105.894 46.6705V23.2522C105.894 22.531 106.18 22.1907 106.727 22.1534C107.275 22.1907 107.531 22.531 107.531 23.2554V23.2522ZM128.514 14.7135V39.6116C128.514 40.2937 128.224 40.6373 127.679 40.6746C127.163 40.6373 126.905 40.2937 126.871 39.6116V14.7135C126.905 14.028 127.163 13.6877 127.679 13.6504C128.224 13.6877 128.514 14.028 128.514 14.7135ZM135.025 30.3127H147.654C147.238 26.3652 144.825 23.7464 141.356 23.7464C137.821 23.7464 135.442 26.3652 135.025 30.3127ZM148.233 32.097H134.992C135.25 36.2716 137.691 39.0816 141.516 39.0816C143.798 39.0816 145.566 37.9797 146.724 36.2716C146.793 36.1535 146.884 36.0571 146.991 35.9907C147.097 35.9245 147.215 35.8902 147.335 35.8908C147.879 35.9279 148.17 36.2716 148.17 36.9182C148.17 37.145 148.104 37.3719 147.945 37.5632C146.467 39.6116 144.312 40.903 141.516 40.903C139.041 40.903 136.986 39.9534 135.539 38.2842C133.417 35.5503 133.353 33.3498 133.287 31.4131C133.287 30.0098 133.417 28.8332 134.027 27.1235C134.929 24.4658 137.786 21.7353 141.356 21.9248C145.954 21.9248 149.229 25.6845 149.229 30.9578C149.196 31.6806 148.842 32.0597 148.233 32.097ZM166.248 38.8903C166.341 38.9969 166.416 39.1263 166.467 39.2701C166.516 39.4139 166.54 39.5689 166.537 39.7249C166.505 40.331 166.219 40.6373 165.669 40.6746C165.413 40.6746 165.187 40.5239 164.996 40.2564L159.177 32.5913L153.297 40.2937C153.224 40.4165 153.128 40.5157 153.015 40.5821C152.903 40.6485 152.779 40.6804 152.653 40.6746C152.138 40.6373 151.882 40.2937 151.851 39.6876C151.851 39.4219 151.914 39.1933 152.076 39.0054L158.052 31.3369L152.298 23.9377C152.108 23.6718 152.01 23.4062 152.01 23.0998C152.042 22.4937 152.333 22.1923 152.878 22.1534C153.135 22.1534 153.36 22.3058 153.551 22.5714L159.209 30.0876L164.901 22.531C164.977 22.4149 165.074 22.3207 165.185 22.2555C165.295 22.1901 165.416 22.1552 165.54 22.1534C166.055 22.1907 166.314 22.531 166.346 23.1403C166.351 23.2665 166.332 23.3924 166.294 23.5099C166.255 23.6273 166.197 23.7336 166.122 23.8226L160.336 31.2996L166.248 38.8903Z" fill="white"/>
<path fill-rule="evenodd" clip-rule="evenodd" d="M73.2762 18.0451C73.2762 15.8055 71.7412 13.9905 69.8455 13.9905C67.947 13.9905 66.4121 15.8055 66.4121 18.0435C66.4121 19.9492 67.5256 21.5422 69.0255 21.9748V39.6145C69.0565 40.2952 69.3151 40.6387 69.828 40.676C70.3747 40.6387 70.6655 40.2952 70.6655 39.6145V21.9748C72.1627 21.5422 73.2775 19.9492 73.2775 18.0435L73.2762 18.0451Z" fill="#2EA836"/>
<mask id="mask1_5_1809" style="mask-type:alpha" maskUnits="userSpaceOnUse" x="0" y="1" width="43" height="51">
<path d="M0.763184 1.66479H42.401V51.942H0.763184V1.66479Z" fill="white"/>
</mask>
<g mask="url(#mask1_5_1809)">
<path fill-rule="evenodd" clip-rule="evenodd" d="M19.4309 10.7776L24.3372 6.15903L13.3142 9.1295L19.4309 10.7776ZM23.248 11.8083L25.1007 7.26749L20.9402 11.1843L23.248 11.8083ZM26.1859 12.5991V7.89302L24.4583 12.134L26.1859 12.5991ZM29.6999 13.5487L27.395 7.89789V12.9281L29.6999 13.5487ZM16.376 13.6573L18.2246 11.9168L13.0449 10.5183L16.3772 13.6557L16.376 13.6573ZM37.3301 15.6068L28.4788 7.26912L31.204 13.9555L37.3261 15.6052L37.3301 15.6068ZM14.0197 15.8758L15.4065 14.568L12.2895 11.6348L14.0197 15.8758ZM20.7949 17.8204L22.7107 13.1274L19.7311 12.3236L17.3453 14.5697L20.7949 17.8204ZM32.9045 18.117L37.0595 16.9988L31.8772 15.5987L32.9045 18.117ZM11.2003 18.5303L13.0489 16.7898L11.2043 12.2555V18.5303H11.2003ZM27.3936 19.603L31.6955 18.4444L30.3692 15.1936L27.3936 14.3898V19.603ZM23.7314 20.5867L26.1845 19.9272V14.0657L23.9185 13.4515L21.7643 18.7344L23.7314 20.5867ZM34.2119 21.324L37.3274 18.3893L33.4417 19.4361L34.2119 21.324ZM20.671 21.41L22.2246 20.9935L21.227 20.0519L20.671 21.4131V21.41ZM16.7099 22.4796L19.1657 21.8184L20.2576 19.1396L16.376 15.4836L14.5582 17.1949L16.7099 22.4796ZM26.1845 22.8977V21.3938L24.9417 21.7243L26.1845 22.8977ZM11.1989 23.9639L15.5021 22.8053L13.5861 18.1057L11.2003 20.3534L11.1989 23.9639ZM5.08353 24.2912L9.99121 19.6679L9.99389 12.2539L5.08353 24.2912ZM17.8018 25.1582L18.4937 23.4615L17.247 23.797L17.8018 25.1582ZM35.7763 25.1582L38.0814 19.5058L34.7504 22.6432L35.7751 25.1598L35.7763 25.1582ZM5.83617 25.4078L9.99121 24.2896V21.4959L5.83617 25.4078ZM29.3621 25.8908L33.2424 22.2365L32.234 19.7619L27.3936 21.0665V24.0353L29.3621 25.8908ZM27.3923 27.7463L28.3926 26.8031L27.3923 25.8599V27.7463ZM9.98985 27.85V25.753L6.10546 26.7999L9.98985 27.8468V27.85ZM16.0393 29.477L17.13 26.8031L16.0393 24.1243L11.2003 25.4273V28.1725L16.0393 29.477ZM33.7797 30.0506L35.1045 26.8015L33.781 23.5572L30.3315 26.8031L33.7783 30.054L33.7797 30.0506ZM18.491 30.1397L17.8018 28.4496L17.247 29.8043L18.491 30.1397ZM23.4324 31.4703L26.1832 28.8822V24.7224L23.4351 22.1328L20.0018 23.0564L18.4723 26.8031L19.9978 30.5466L23.4324 31.4703ZM9.98985 32.1055V29.3116L5.83617 28.1919L9.98985 32.1055ZM26.1818 32.214V30.7102L24.939 31.8803L26.1818 32.214ZM39.1693 33.4813L39.1706 20.1249L36.4456 26.8031L39.1693 33.4813ZM21.2243 33.5543L22.2234 32.6095L20.6683 32.1915L21.2243 33.5543ZM32.2313 33.8459L33.2411 31.3697L29.3621 27.7154L27.3909 29.5709V32.5397L32.2313 33.8459ZM38.0814 34.1052L35.7763 28.4496L34.7504 30.9647L38.0814 34.1052ZM37.3274 35.2202L34.2119 32.2838L33.4404 34.17L37.3274 35.2202ZM13.5861 35.4956L15.5021 30.7993L11.2016 29.6407V33.2464L13.5861 35.4956ZM31.8758 38.0107L37.0609 36.6155L32.9031 35.494L31.8758 38.0107ZM16.3745 38.1242L20.2549 34.4682L19.1643 31.7878L16.7111 31.1266L14.5569 36.4097L16.3745 38.1242ZM27.3909 39.2198L30.3692 38.4176L31.6955 35.1683L27.3923 34.0081L27.3909 39.2198ZM23.9158 40.1564L26.1818 39.5471L26.1832 33.6806L23.7326 33.0194L21.7629 34.8733L23.9158 40.1564ZM19.7284 41.2843L22.704 40.4821L20.7922 35.789L17.3426 39.0367L19.7284 41.2843ZM9.99121 41.3491V33.9351L5.08353 29.3084L9.9885 41.3491H9.99121ZM11.1976 41.3491L13.0489 36.8164L11.2003 35.0744V41.3491H11.1976ZM12.2882 41.9698L15.4051 39.0349L14.0183 37.7304L12.2882 41.9698ZM13.0422 43.0847L18.2204 41.691L16.3745 39.9489L13.0422 43.0847ZM26.1818 45.7197V41.0088L24.4531 41.4755L26.1818 45.7197ZM27.3909 45.7197L29.6972 40.064L27.3909 40.6847V45.7197ZM25.0939 46.3388L23.244 41.8013L20.9375 42.4251L25.0912 46.3388H25.0939ZM28.4788 46.3388L37.3301 38.0059L31.2052 39.6571L28.4788 46.3388ZM24.3345 47.4505L19.4295 42.8286L13.3115 44.4767L24.3345 47.4505ZM26.7863 51.9457C26.3934 51.9481 26.0051 51.8444 25.6498 51.6426C25.2946 51.4407 24.9813 51.1455 24.7331 50.7789C24.3677 50.2388 24.1658 49.5651 24.1608 48.8684L12.9452 45.8429C12.725 46.3649 12.3885 46.8029 11.9734 47.1078C11.5582 47.413 11.0808 47.5732 10.5944 47.5704C10.2014 47.5732 9.81279 47.4701 9.45724 47.2684C9.10168 47.0668 8.78817 46.7718 8.53978 46.4052C8.32649 46.0896 8.16753 45.7262 8.07214 45.3361C7.97677 44.9458 7.94688 44.5367 7.98423 44.1324C8.02156 43.7281 8.12539 43.337 8.28966 42.9816C8.45393 42.626 8.67534 42.3134 8.94099 42.0621L3.95255 29.8254C3.76538 29.8741 3.57823 29.895 3.38704 29.895C2.99486 29.898 2.60712 29.7951 2.25227 29.594C1.89744 29.393 1.58451 29.0988 1.33646 28.7332C1.12213 28.4163 0.962637 28.0511 0.867378 27.659C0.772118 27.2666 0.743017 26.8556 0.781786 26.4497C0.820554 26.0438 0.926411 25.6513 1.09312 25.2953C1.25983 24.9394 1.48402 24.6273 1.7525 24.3772C2.21689 23.9378 2.791 23.7003 3.38165 23.703C3.57554 23.703 3.76538 23.729 3.95388 23.7758L8.94774 11.5344C8.60478 11.2139 8.33654 10.792 8.16902 10.3099C8.00153 9.82774 7.94047 9.30165 7.99178 8.7827C8.06987 7.95946 8.41456 7.22375 8.96389 6.7084C9.42959 6.267 10.0057 6.02825 10.5984 6.03103C11.0859 6.02891 11.5643 6.18995 11.9801 6.49615C12.396 6.80234 12.7329 7.24166 12.9533 7.765L24.169 4.74269C24.1701 4.27881 24.2594 3.82137 24.4299 3.40539C24.6005 2.9894 24.8479 2.6259 25.1532 2.34267C25.6191 1.90184 26.1952 1.66368 26.7878 1.6669C27.5928 1.6669 28.3414 2.09148 28.841 2.83368C29.4645 3.7574 29.5869 5.02143 29.1614 6.08612L38.1595 14.5632C38.6225 14.1328 39.1916 13.9007 39.7766 13.9036C40.5803 13.9036 41.3289 14.3282 41.8298 15.0704C42.0441 15.3872 42.2036 15.7525 42.2989 16.1447C42.3941 16.5369 42.4232 16.948 42.3846 17.3539C42.3458 17.7598 42.2399 18.1523 42.0732 18.5083C41.9064 18.8642 41.6822 19.1764 41.4138 19.4264C41.11 19.7124 40.7573 19.9138 40.3811 20.0163V33.598C40.9519 33.7568 41.4623 34.1393 41.8285 34.6838C42.2661 35.3289 42.4614 36.139 42.3846 36.9606C42.3459 37.3674 42.2399 37.761 42.0729 38.1178C41.906 38.4744 41.6814 38.7875 41.4124 39.0383C40.9462 39.4778 40.3703 39.7154 39.7778 39.7124C39.1895 39.7124 38.6146 39.479 38.1555 39.0528L29.1587 47.5217C29.6758 48.8134 29.3741 50.3739 28.4209 51.2684C27.955 51.7092 27.3789 51.9489 26.7863 51.9457Z" fill="#2EA836"/>
</g>
</g>
</g>
<defs>
<clipPath id="clip0_5_1809">
<rect width="166.955" height="51.8573" fill="white" transform="translate(0.432129 0.737793)"/>
</clipPath>
</defs>
</svg>
