<svg width="15" height="15" viewBox="0 0 15 15" fill="none" xmlns="http://www.w3.org/2000/svg">
<path d="M9.375 14.2188H5.625C2.23125 14.2188 0.78125 12.7688 0.78125 9.375V5.625C0.78125 2.23125 2.23125 0.78125 5.625 0.78125H9.375C12.7688 0.78125 14.2188 2.23125 14.2188 5.625V9.375C14.2188 12.7688 12.7688 14.2188 9.375 14.2188ZM5.625 1.71875C2.74375 1.71875 1.71875 2.74375 1.71875 5.625V9.375C1.71875 12.2563 2.74375 13.2812 5.625 13.2812H9.375C12.2563 13.2812 13.2812 12.2563 13.2812 9.375V5.625C13.2812 2.74375 12.2563 1.71875 9.375 1.71875H5.625Z" fill="white"/>
<path d="M6.3623 11.1875C6.24355 11.1875 6.12481 11.1438 6.03106 11.05L4.13105 9.15003C3.9498 8.96878 3.9498 8.66878 4.13105 8.48753C4.3123 8.30628 4.6123 8.30628 4.79355 8.48753L6.69355 10.3875C6.8748 10.5688 6.8748 10.8688 6.69355 11.05C6.60605 11.1438 6.4873 11.1875 6.3623 11.1875Z" fill="white"/>
<path d="M6.36279 11.1875C6.10654 11.1875 5.89404 10.975 5.89404 10.7187V4.28123C5.89404 4.02498 6.10654 3.81248 6.36279 3.81248C6.61904 3.81248 6.83154 4.02498 6.83154 4.28123V10.725C6.83154 10.9812 6.62529 11.1875 6.36279 11.1875Z" fill="white"/>
<path d="M10.5371 6.65002C10.4184 6.65002 10.2996 6.60627 10.2059 6.51252L8.30586 4.61252C8.12461 4.43127 8.12461 4.13127 8.30586 3.95002C8.48711 3.76877 8.78711 3.76877 8.96836 3.95002L10.8684 5.85002C11.0496 6.03128 11.0496 6.33127 10.8684 6.51252C10.7746 6.60002 10.6559 6.65002 10.5371 6.65002Z" fill="white"/>
<path d="M8.63721 11.1875C8.38096 11.1875 8.16846 10.975 8.16846 10.7187V4.28123C8.16846 4.02498 8.38096 3.81248 8.63721 3.81248C8.89346 3.81248 9.10596 4.02498 9.10596 4.28123V10.725C9.10596 10.9812 8.89346 11.1875 8.63721 11.1875Z" fill="white"/>
</svg>
