<svg width="174" height="54" viewBox="0 0 174 54" fill="none" xmlns="http://www.w3.org/2000/svg">
<g clip-path="url(#clip0_5_1795)">
<mask id="mask0_5_1795" style="mask-type:luminance" maskUnits="userSpaceOnUse" x="0" y="0" width="174" height="54">
<path d="M173.626 0.262329H0.616699V53.9999H173.626V0.262329Z" fill="white"/>
</mask>
<g mask="url(#mask0_5_1795)">
<path d="M15.8664 0.262329C14.4234 0.262328 12.9945 0.607397 11.6615 1.27781C10.3285 1.94822 9.11743 2.93084 8.09759 4.16947C7.07774 5.4081 6.2691 6.87846 5.71789 8.4965C5.16668 10.1145 4.88372 11.8485 4.88518 13.5993V18.5986C2.75371 19.0705 0.616699 19.6918 0.616699 20.5029V46.5908C0.616699 46.5908 0.616699 47.3129 1.28382 47.6539C3.70318 48.8461 13.22 52.937 15.4069 53.8741C15.6879 53.9999 15.7667 53.9999 15.8415 53.9999C15.9453 53.9999 15.9937 53.9999 16.2761 53.8741C18.463 52.937 28.0047 48.8444 30.4226 47.6539C31.0414 47.3414 31.0663 46.6211 31.0663 46.6211V20.5029C31.0663 19.6918 28.9598 19.0369 26.8227 18.5986V13.5993C26.8531 6.2272 21.9106 0.262329 15.8664 0.262329ZM15.8664 6.63695C19.4428 6.63695 21.6047 9.26338 21.6047 13.6061V17.9521C17.7862 17.6098 13.9521 17.6098 10.1336 17.9521V13.6077C10.1336 9.25499 12.2955 6.63695 15.8664 6.63695ZM15.8415 24.3486C20.8324 24.3486 25.022 24.8188 25.022 25.6583V41.9342C25.022 42.1861 24.9972 42.2163 24.8144 42.3052C24.6359 42.4027 16.301 46.0552 16.301 46.0552C16.301 46.0552 15.9633 46.1811 15.8664 46.1811C15.7626 46.1811 15.4304 46.0249 15.4304 46.0249C15.4304 46.0249 7.09553 42.3724 6.91837 42.2767C6.74121 42.1793 6.71076 42.1508 6.71076 41.904V25.6281C6.66094 24.7886 10.8491 24.3486 15.8415 24.3486ZM42.824 41.7259V21.1276H36.6219V13.7404H55.9616V21.1293H49.8204V41.7242H42.8253L42.824 41.7259ZM71.632 41.7259L68.4486 32.9263H65.9158V41.7259H58.9207V13.7404H71.232C76.6355 13.7404 79.5351 18.0881 79.5351 23.3292C79.5351 28.1606 77.2319 30.7165 75.3829 31.8181L79.5627 41.7176H71.632V41.7259ZM72.4582 23.3292C72.4582 21.8095 71.3469 21.1528 70.1829 21.1528H65.9158V25.5727H70.1829C71.3469 25.5391 72.4582 24.8843 72.4582 23.3292ZM83.207 41.7259V13.7404H100.699V21.1293H90.1758V23.8885H100.441V31.2755H90.1758V34.3487H100.699V41.7259H83.207ZM104.336 41.7612V35.0306L113.125 21.1613H104.336V13.7757H122.335V20.4391L113.518 34.3824H122.592V41.7697L104.336 41.7612ZM124.299 27.7845C124.299 19.1897 129.791 13.2903 136.928 13.2903C144.04 13.2903 149.559 19.1561 149.559 27.7828C149.559 36.3773 144.066 42.2448 136.928 42.2448C129.791 42.2448 124.299 36.3773 124.299 27.7845ZM142.448 27.7845C142.448 23.8817 140.261 20.775 136.902 20.775C133.543 20.775 131.356 23.8817 131.356 27.7845C131.356 31.687 133.543 34.792 136.902 34.792C140.287 34.792 142.448 31.6854 142.448 27.7845ZM165.194 41.7612L162.012 32.9617H159.479V41.7612H152.484V13.7757H164.795C170.199 13.7757 173.096 18.1217 173.096 23.3645C173.096 28.1958 170.795 30.7499 168.946 31.8516L173.125 41.7527H165.194V41.7612ZM166.048 23.3309C166.048 21.8111 164.938 21.1545 163.772 21.1545H159.507V25.5744H163.772C164.943 25.5409 166.048 24.8843 166.048 23.3309Z" fill="white"/>
</g>
</g>
<defs>
<clipPath id="clip0_5_1795">
<rect width="173.009" height="53.7376" fill="white" transform="translate(0.617188 0.262329)"/>
</clipPath>
</defs>
</svg>
