<svg width="170" height="53" viewBox="0 0 170 53" fill="none" xmlns="http://www.w3.org/2000/svg">
<g clip-path="url(#clip0_5_1737)">
<mask id="mask0_5_1737" style="mask-type:luminance" maskUnits="userSpaceOnUse" x="0" y="0" width="170" height="53">
<path d="M169.502 0H0.751953V52.4149H169.502V0Z" fill="white"/>
</mask>
<g mask="url(#mask0_5_1737)">
<path d="M48.8432 8.77216C48.8204 8.07452 48.2758 7.47949 47.5041 7.38716C43.9297 6.94601 40.4006 6.1663 36.9395 5.0275C33.5011 3.87846 29.6885 2.28825 25.5806 0.195357C25.0586 -0.0713854 24.5705 -0.0713854 24.0487 0.195357C19.9635 2.28825 16.1847 3.87846 12.7123 5.0275C9.25132 6.1663 5.72219 6.94601 2.17039 7.38716C1.39875 7.47949 0.865413 8.07452 0.774632 8.77216C0.434203 21.9451 3.62289 32.7277 10.318 41.1097C13.9606 45.675 18.5337 49.3785 24.0373 52.2101C24.4684 52.4974 25.1267 52.4666 25.626 52.2101C31.0955 49.3376 35.6572 45.6544 39.2884 41.1097C46.0062 32.7277 49.1721 21.9451 48.8432 8.77216Z" fill="#403352"/>
<mask id="mask1_5_1737" style="mask-type:alpha" maskUnits="userSpaceOnUse" x="0" y="-1" width="49" height="54">
<path d="M48.8432 8.77223C48.8204 8.07458 48.2758 7.47953 47.5041 7.3872C43.9297 6.94605 40.4006 6.16636 36.9395 5.02756C33.5011 3.87853 29.6885 2.28832 25.5806 0.195418C25.0586 -0.0713244 24.5705 -0.0713244 24.0487 0.195418C19.9635 2.28832 16.1847 3.87853 12.7123 5.02756C9.25132 6.16636 5.72219 6.94605 2.17039 7.3872C1.39875 7.47953 0.865413 8.07458 0.774632 8.77223C0.434203 21.9452 3.62289 32.7278 10.318 41.1096C13.9606 45.6751 18.5337 49.3786 24.0373 52.2102C24.4684 52.4975 25.1267 52.4667 25.626 52.2102C31.0955 49.3377 35.6572 45.6545 39.2884 41.1096C46.0062 32.7278 49.1721 21.9452 48.8432 8.77223Z" fill="#403352"/>
</mask>
<g mask="url(#mask1_5_1737)">
<path opacity="0.2" d="M78.5738 34.9127L46.8345 63.6081L22.1533 41.294C22.7321 38.7085 23.3676 22.1706 23.3676 22.1706C23.3676 22.1706 31.5378 14.9275 33.8867 12.8756C48.7863 20.2212 63.6856 27.5567 78.5738 34.9127Z" fill="url(#paint0_linear_5_1737)"/>
</g>
<path d="M27.9735 21.5036L22.7422 21.3907L32.7395 13.2243C33.2501 12.7626 34.0897 12.7934 34.5549 13.2961L36.6656 15.5532C36.8699 15.9327 36.8245 16.3739 36.5521 16.7125L33.2727 20.7342C32.0357 22.2526 30.05 21.5343 27.9735 21.5036Z" fill="#C23A76"/>
<path d="M27.3604 37.9905L23.4456 41.0989C22.6512 41.7351 21.3916 41.222 21.3916 40.2576V21.1754L27.1447 24.3866C27.5079 24.5916 27.7235 24.9508 27.7349 25.3304L27.7803 37.1389C27.7803 37.4774 27.6328 37.7852 27.3604 37.9905Z" fill="#F24B93"/>
<path d="M27.7359 31.9376V25.3304C27.7359 24.9508 27.5202 24.6021 27.1685 24.3969L16.1044 17.9335L13.0746 21.6166C12.6548 22.1295 12.791 22.8579 13.381 23.2068L27.7359 31.9376Z" fill="#C23A76"/>
<path d="M31.4799 22.2525H13.3805C12.9153 22.2525 12.7564 21.9755 13.0287 21.6368L16.7054 16.9484C16.9323 16.6509 17.3181 16.4764 17.7153 16.4764H36.4048C36.5298 16.4764 36.7452 16.4764 36.6658 16.5688L32.4786 21.7909C32.2402 22.0882 31.8771 22.2525 31.4799 22.2525Z" fill="#F24B93"/>
<path d="M58.3319 37.7379V25.7956H53.9102V22.1568H67.6874V25.7956H63.2655V37.7379H58.3319Z" fill="#F24B93"/>
<path d="M75.9732 37.7379H71.0396V22.1568H78.4983C80.7168 22.1568 82.4083 22.6211 83.5718 23.5498C84.7123 24.4641 85.2823 25.7634 85.2823 27.4477C85.2823 28.3907 85.0498 29.2546 84.5843 30.0392C84.0956 30.8526 83.4243 31.4502 82.5711 31.8318L85.7594 37.7381H80.2437L77.5906 32.5118H75.9732V37.7379ZM75.9732 29.4884H78.0096C78.6999 29.4884 79.247 29.3086 79.6504 28.9486C80.046 28.5887 80.2437 28.1136 80.2437 27.5233C80.2437 26.9403 80.0381 26.4651 79.627 26.098C79.2156 25.7236 78.6804 25.5364 78.0212 25.5364H75.9732V29.4884Z" fill="#F24B93"/>
<path d="M93.8784 31.6804C93.8784 32.5011 94.0917 33.1272 94.5184 33.5593C94.9372 33.9983 95.5462 34.2179 96.3453 34.2179C97.1443 34.2179 97.7527 33.9983 98.1719 33.5593C98.5982 33.1272 98.8119 32.5011 98.8119 31.6804V22.1568H103.746V32.1878C103.746 33.9588 103.067 35.3734 101.71 36.4314C100.36 37.4825 98.5719 38.0079 96.345 38.0079C94.1184 38.0079 92.3307 37.4825 90.9807 36.4314C89.6231 35.3734 88.9443 33.9588 88.9443 32.1878V22.1568H93.878L93.8784 31.6804Z" fill="#F24B93"/>
<path d="M111.939 33.1491C112.009 33.5809 112.301 33.9372 112.812 34.218C113.308 34.4843 113.894 34.6175 114.57 34.6175C115.299 34.6175 115.88 34.4952 116.315 34.2504C116.742 34.0057 116.954 33.6926 116.954 33.311C116.954 32.9509 116.776 32.674 116.42 32.4796C116.078 32.2925 115.45 32.1232 114.534 31.972L112.312 31.6049C110.776 31.3602 109.596 30.8382 108.775 30.0393C107.96 29.2547 107.553 28.2505 107.553 27.0266C107.553 25.4717 108.204 24.2192 109.507 23.2691C110.78 22.3478 112.432 21.887 114.464 21.887C116.676 21.887 118.397 22.3299 119.631 23.2151C120.834 24.0862 121.442 25.2849 121.458 26.8109H116.954C116.939 26.3358 116.702 25.9578 116.245 25.677C115.803 25.4036 115.24 25.2667 114.558 25.2667C113.914 25.2667 113.401 25.382 113.022 25.6123C112.642 25.8427 112.451 26.1523 112.451 26.5408C112.451 26.9079 112.634 27.1996 112.998 27.4155C113.348 27.6314 113.925 27.8042 114.732 27.9338L117.036 28.3009C118.666 28.5672 119.871 29.0676 120.655 29.8018C121.431 30.5288 121.819 31.5259 121.819 32.7927C121.819 34.3837 121.155 35.6505 119.829 36.5936C118.494 37.5366 116.71 38.008 114.477 38.008C112.211 38.008 110.45 37.5868 109.193 36.7448C107.921 35.8953 107.282 34.6968 107.273 33.1491H111.939Z" fill="#F24B93"/>
<path d="M129.13 37.7379V25.7956H124.708V22.1568H138.486V25.7956H134.065V37.7379H129.13Z" fill="#F24B93"/>
<path d="M153.684 37.7379H141.838V22.1568H153.684V25.7956H146.771V28.3115H153.254V31.5941H146.771V34.0991H153.684V37.7379Z" fill="#F24B93"/>
<path d="M169.5 37.7379H157.655V22.1568H169.5V25.7956H162.588V28.3115H169.069V31.5941H162.588V34.0991H169.5V37.7379Z" fill="#F24B93"/>
</g>
</g>
<defs>
<linearGradient id="paint0_linear_5_1737" x1="16.2539" y1="44.5149" x2="70.0629" y2="61.6457" gradientUnits="userSpaceOnUse">
<stop/>
<stop offset="1" stop-opacity="0.7"/>
</linearGradient>
<clipPath id="clip0_5_1737">
<rect width="168.751" height="52.4149" fill="white" transform="translate(0.751953)"/>
</clipPath>
</defs>
</svg>
